<svg width="226" height="71" viewBox="0 0 226 71" fill="none" xmlns="http://www.w3.org/2000/svg">
<path opacity="0.5" fill-rule="evenodd" clip-rule="evenodd" d="M63.9811 49.5818C64.0983 49.8703 64.2154 50.1587 64.3326 50.4393C65.2465 53.0355 65.5277 55.4913 64.9653 57.9471C64.192 63.1393 60.7472 67.63 55.826 69.5946C54.0684 70.3664 52.1 70.7172 50.1315 70.7172C49.5691 70.7172 48.8661 70.6471 48.3036 70.5769C45.9837 70.2962 43.5934 69.5244 41.2734 68.1913C38.4613 66.5775 35.6492 64.262 32.5559 60.894C29.4626 64.262 26.7208 66.5775 23.8384 68.1913C21.5184 69.5244 19.1281 70.2962 16.8081 70.5769C16.2457 70.6471 15.5427 70.7172 14.9803 70.7172C13.0118 70.7172 11.1136 70.3664 9.28578 69.5946C4.43491 67.63 0.91979 63.2095 0.146463 57.9471C-0.205049 55.4211 0.076161 52.9653 0.990093 50.3692C1.3416 49.457 1.69312 48.615 2.04463 47.8432C2.30104 47.2674 2.55746 46.7061 2.80721 46.1595L2.80735 46.1592C3.10535 45.507 3.39387 44.8755 3.66159 44.2647L3.73189 44.1244C8.58276 33.5995 13.8554 22.9343 19.2687 12.4094L19.4796 11.9884C20.042 10.936 20.6044 9.81343 21.1668 8.69084L21.1669 8.69065C21.8699 7.42767 22.6432 6.09452 23.6978 4.83153C26.0178 2.16523 29.1814 0.621582 32.6965 0.621582C36.1413 0.621582 39.3752 2.16523 41.6249 4.97186C42.6622 6.13654 43.3408 7.36088 43.9914 8.53484C44.0463 8.63394 44.1011 8.73267 44.1558 8.83098C44.7182 9.95364 45.2806 11.0763 45.8431 12.1288L46.054 12.5498C51.5375 23.0746 56.7399 33.7399 61.5908 44.2647L61.6611 44.3349C61.9288 44.9456 62.2174 45.5772 62.5154 46.2295C62.7652 46.7762 63.0216 47.3375 63.2781 47.9134C63.5124 48.4279 63.7468 49.0049 63.9811 49.5818ZM118.608 18.2334C118.608 20.7594 116.569 22.7942 114.038 22.7942C111.508 22.7942 109.469 20.7594 109.469 18.2334C109.469 15.7074 111.437 13.6726 114.038 13.6726C116.64 13.7428 118.608 15.7776 118.608 18.2334ZM99.7656 27.425V28.5477C99.7656 28.5477 97.5863 25.7411 92.9463 25.7411C85.2833 25.7411 79.3076 31.5648 79.3076 39.6339C79.3076 47.6328 85.213 53.5267 92.9463 53.5267C97.6566 53.5267 99.7656 50.6499 99.7656 50.6499V51.8427C99.7656 52.4041 100.187 52.8251 100.75 52.8251H106.444V26.4427H100.75C100.187 26.4427 99.7656 26.9339 99.7656 27.425ZM94.0723 47.2116C96.6032 47.2116 98.7123 45.8784 99.7668 44.3348V34.9325C98.7826 33.4591 96.5329 32.0557 94.0723 32.0557C89.573 32.0557 86.1282 34.8624 86.1282 39.6337C86.1282 44.4049 89.573 47.2116 94.0723 47.2116ZM110.661 26.4426H117.41V52.825H110.661V26.4426ZM204.657 28.5474C204.657 28.5474 206.836 25.7408 211.476 25.7408C219.069 25.7408 225.045 31.6347 225.045 39.6336C225.045 47.6325 219.069 53.5264 211.406 53.5264C206.766 53.5264 204.587 50.6497 204.587 50.6497V51.8425C204.587 52.3336 204.165 52.8248 203.602 52.8248H197.908V13.7424H204.657V28.5474ZM210.349 47.1413C207.748 47.1413 205.709 45.8082 204.655 44.2645V34.8623C205.709 33.459 207.959 31.9855 210.349 31.9855C214.849 31.9855 218.293 34.7921 218.293 39.5634C218.293 44.3347 214.849 47.1413 210.349 47.1413ZM194.392 52.8952V37.1781C194.392 32.7576 193.479 30.2317 191.088 28.267C189.12 26.583 186.659 25.7411 183.707 25.7411C181.105 25.7411 178.504 26.5129 176.536 28.5477V27.425C176.536 26.9339 176.114 26.4427 175.551 26.4427H170.208V52.8251H176.957V34.4416C178.293 32.898 180.402 31.8455 182.441 31.8455C186.237 31.8455 187.643 33.5996 187.643 37.9499V52.8952H194.392ZM153.826 25.7408C149.186 25.7408 147.007 28.5474 147.007 28.5474V13.7424H140.258V52.8248H145.952C146.515 52.8248 146.936 52.3336 146.936 51.8425V50.6497C146.936 50.6497 149.116 53.5264 153.756 53.5264C161.419 53.5264 167.394 47.6325 167.394 39.6336C167.465 31.6347 161.489 25.7408 153.826 25.7408ZM147.008 44.2645C148.063 45.8082 150.101 47.1413 152.703 47.1413C157.202 47.1413 160.647 44.3347 160.647 39.5634C160.647 34.7921 157.202 31.9855 152.703 31.9855C150.312 31.9855 148.063 33.459 147.008 34.8623V44.2645ZM134.425 25.7411C136.464 25.7411 137.518 26.0919 137.518 26.0919V32.3366C137.518 32.3366 131.894 30.4422 128.379 34.4416V52.8952H121.63V26.4427H127.325C127.887 26.4427 128.309 26.9339 128.309 27.425V28.5477C129.574 27.0742 132.316 25.7411 134.425 25.7411ZM32.6258 54.088C28.8294 49.3167 26.3688 44.8261 25.5252 41.0371C25.1737 39.4233 25.1034 38.02 25.3143 36.757C25.4549 35.6344 25.8767 34.6521 26.4391 33.8101C27.7749 31.9156 30.0246 30.7228 32.6258 30.7228C35.227 30.7228 37.5469 31.8454 38.8124 33.8101C39.3748 34.6521 39.7966 35.6344 39.9372 36.757C40.1481 38.02 40.0778 39.4935 39.7263 41.0371C38.8827 44.7559 36.4221 49.2465 32.6258 54.088ZM54.2788 65.5951C57.7236 64.1918 60.1842 61.0343 60.6763 57.3857C60.9575 55.5614 60.7466 53.8072 60.1842 51.9829C60.0376 51.4953 59.8231 51.0077 59.588 50.473C59.4847 50.2383 59.3775 49.9945 59.2702 49.7376C58.989 49.1763 58.7254 48.5799 58.4618 47.9835C58.1981 47.387 57.9345 46.7906 57.6533 46.2293V46.1591C52.8024 35.7044 47.6 25.0392 42.2571 14.5845L42.0461 14.1635C41.7649 13.6373 41.4837 13.0935 41.2025 12.5496C40.9213 12.0059 40.6401 11.4621 40.3589 10.9359C39.7965 9.81325 39.1637 8.76076 38.3904 7.84861C36.9141 6.16463 34.9456 5.25247 32.7662 5.25247C30.5868 5.25247 28.6184 6.16463 27.142 7.84861C26.3687 8.76076 25.736 9.81325 25.1736 10.9359C24.8923 11.4621 24.6111 12.0059 24.3299 12.5497C24.0487 13.0935 23.7675 13.6373 23.4863 14.1635L23.2754 14.5845C17.8621 24.9691 12.6597 35.6343 7.80886 46.089L7.73855 46.2293C7.17613 47.4221 6.61371 48.615 6.1216 49.7376C6.01436 49.9945 5.90713 50.2383 5.80389 50.473C5.5687 51.0077 5.35423 51.4953 5.20767 51.9829C4.50464 53.9476 4.36404 55.7017 4.57494 57.4559C5.06706 61.1045 7.52765 64.2619 10.9725 65.6653C12.5894 66.2967 14.4173 66.5774 16.3155 66.3669C18.073 66.1564 19.8306 65.5951 21.6584 64.5426C24.1893 63.1393 26.7905 60.9641 29.6729 57.7365C25.1033 52.0531 22.2209 46.7906 21.1663 42.1597C20.6039 40.0547 20.5336 38.0199 20.8148 36.1956C21.096 34.4415 21.7287 32.8276 22.713 31.4243C24.8924 28.337 28.5481 26.4426 32.6256 26.4426C36.7032 26.4426 40.3589 28.2669 42.5383 31.4243C43.5225 32.8276 44.1552 34.4415 44.4364 36.1956C44.6473 38.0199 44.577 39.9846 44.0849 42.1597C43.0304 46.7906 40.2183 51.9829 35.5783 57.6663C38.531 60.894 41.0619 63.0691 43.5928 64.4724C45.4207 65.5249 47.1782 66.0863 48.9358 66.2967C50.7636 66.5072 52.5915 66.2967 54.2788 65.5951Z" fill="#F8F8F8"/>
</svg>
