<svg width="1041" height="964" viewBox="0 0 1041 964" fill="none" xmlns="http://www.w3.org/2000/svg">
<circle cx="559" cy="482" r="480" stroke="#F1C9B3" stroke-opacity="0.3" stroke-width="4"/>
<path d="M122.458 213.168C122.458 211.392 122.686 210.036 123.142 209.1C123.61 208.152 124.12 207.474 124.672 207.066C125.02 206.802 125.356 206.628 125.68 206.544C126.004 206.448 126.274 206.4 126.49 206.4C126.73 206.4 126.988 206.424 127.264 206.472C127.552 206.52 127.834 206.604 128.11 206.724C128.866 207.024 129.556 207.612 130.18 208.488C130.816 209.352 131.134 210.648 131.134 212.376C131.134 212.616 131.128 212.856 131.116 213.096C131.104 213.336 131.08 213.576 131.044 213.816C130.888 215.208 130.48 216.48 129.82 217.632C129.172 218.784 128.236 219.36 127.012 219.36C127 219.36 126.988 219.36 126.976 219.36C126.976 219.36 126.97 219.36 126.958 219.36C125.83 219.348 124.798 218.814 123.862 217.758C122.926 216.69 122.458 215.16 122.458 213.168ZM123.772 212.79C123.82 214.638 124.108 216.036 124.636 216.984C125.164 217.932 125.74 218.526 126.364 218.766C126.472 218.814 126.58 218.85 126.688 218.874C126.808 218.886 126.922 218.892 127.03 218.892C127.042 218.892 127.048 218.892 127.048 218.892C127.06 218.892 127.072 218.892 127.084 218.892C127.732 218.88 128.326 218.466 128.866 217.65C129.406 216.822 129.676 215.142 129.676 212.61C129.676 210.81 129.46 209.508 129.028 208.704C128.596 207.9 128.122 207.372 127.606 207.12C127.402 207.024 127.198 206.958 126.994 206.922C126.79 206.886 126.604 206.868 126.436 206.868C126.34 206.868 126.238 206.88 126.13 206.904C126.034 206.916 125.932 206.934 125.824 206.958C125.332 207.126 124.876 207.558 124.456 208.254C124.048 208.95 123.82 210.096 123.772 211.692C123.772 211.74 123.766 211.788 123.754 211.836C123.754 211.884 123.754 211.926 123.754 211.962C123.754 212.01 123.754 212.058 123.754 212.106C123.754 212.154 123.754 212.202 123.754 212.25C123.754 212.298 123.754 212.346 123.754 212.394C123.754 212.43 123.76 212.472 123.772 212.52C123.772 212.568 123.772 212.616 123.772 212.664C123.772 212.7 123.772 212.742 123.772 212.79ZM142.12 216.102H142.786C142.726 216.282 142.672 216.444 142.624 216.588C142.576 216.732 142.534 216.87 142.498 217.002C142.486 217.05 142.474 217.098 142.462 217.146C142.45 217.182 142.438 217.218 142.426 217.254C142.39 217.362 142.354 217.482 142.318 217.614C142.294 217.734 142.264 217.866 142.228 218.01C142.192 218.142 142.162 218.262 142.138 218.37C142.114 218.466 142.09 218.556 142.066 218.64C142.066 218.676 142.06 218.712 142.048 218.748C142.048 218.784 142.042 218.82 142.03 218.856C142.03 218.88 142.024 218.91 142.012 218.946C142.012 218.97 142.012 218.988 142.012 219C141.976 219.012 141.94 219.024 141.904 219.036C141.868 219.048 141.832 219.06 141.796 219.072C141.652 219.108 141.496 219.138 141.328 219.162C141.16 219.198 140.986 219.216 140.806 219.216C140.698 219.216 140.59 219.21 140.482 219.198C140.374 219.186 140.272 219.174 140.176 219.162C140.104 219.15 140.032 219.138 139.96 219.126C139.888 219.114 139.816 219.102 139.744 219.09C139.708 219.09 139.672 219.084 139.636 219.072C139.6 219.072 139.564 219.066 139.528 219.054C138.928 218.958 138.364 218.898 137.836 218.874C137.308 218.838 136.87 218.82 136.522 218.82C136.378 218.82 136.24 218.826 136.108 218.838C135.976 218.838 135.844 218.838 135.712 218.838C135.484 218.862 135.25 218.898 135.01 218.946C134.77 218.982 134.5 219.054 134.2 219.162V218.712C134.284 218.64 134.368 218.568 134.452 218.496C134.548 218.424 134.638 218.346 134.722 218.262C135.37 217.674 136 216.978 136.612 216.174C137.236 215.37 137.788 214.548 138.268 213.708C138.76 212.844 139.156 212.01 139.456 211.206C139.756 210.39 139.906 209.688 139.906 209.1C139.906 208.452 139.762 207.96 139.474 207.624C139.186 207.288 138.868 207.078 138.52 206.994C138.46 206.982 138.394 206.976 138.322 206.976C138.262 206.964 138.202 206.958 138.142 206.958C137.938 206.958 137.704 206.994 137.44 207.066C137.188 207.126 136.924 207.246 136.648 207.426C136.372 207.606 136.102 207.852 135.838 208.164C135.586 208.464 135.358 208.854 135.154 209.334C135.13 209.25 135.1 209.178 135.064 209.118C135.04 209.058 135.01 209.004 134.974 208.956C134.95 208.92 134.926 208.89 134.902 208.866C134.89 208.83 134.872 208.794 134.848 208.758C134.824 208.722 134.8 208.692 134.776 208.668C134.764 208.632 134.752 208.602 134.74 208.578C134.728 208.566 134.716 208.554 134.704 208.542C134.704 208.53 134.698 208.518 134.686 208.506C134.674 208.482 134.656 208.458 134.632 208.434C134.608 208.398 134.578 208.362 134.542 208.326C135.154 207.69 135.808 207.198 136.504 206.85C137.2 206.49 137.944 206.31 138.736 206.31C139.552 206.31 140.212 206.544 140.716 207.012C141.22 207.48 141.472 208.122 141.472 208.938C141.472 208.998 141.466 209.058 141.454 209.118C141.454 209.178 141.454 209.238 141.454 209.298C141.346 210.342 140.878 211.422 140.05 212.538C139.222 213.654 138.28 214.938 137.224 216.39C137.14 216.51 137.062 216.624 136.99 216.732C136.918 216.828 136.846 216.918 136.774 217.002C136.702 217.098 136.624 217.188 136.54 217.272C136.468 217.344 136.39 217.422 136.306 217.506C136.258 217.53 136.216 217.56 136.18 217.596C136.144 217.62 136.102 217.65 136.054 217.686L136.108 217.758C136.132 217.746 136.168 217.734 136.216 217.722C136.276 217.698 136.348 217.674 136.432 217.65C136.576 217.614 136.756 217.584 136.972 217.56C137.2 217.524 137.47 217.506 137.782 217.506C137.878 217.506 137.968 217.512 138.052 217.524C138.148 217.524 138.238 217.53 138.322 217.542C138.37 217.542 138.412 217.548 138.448 217.56C138.496 217.56 138.544 217.56 138.592 217.56C139.504 217.632 140.098 217.674 140.374 217.686C140.65 217.698 140.842 217.704 140.95 217.704C141.022 217.704 141.094 217.698 141.166 217.686C141.238 217.662 141.316 217.626 141.4 217.578C141.544 217.494 141.682 217.344 141.814 217.128C141.946 216.9 142.048 216.558 142.12 216.102Z" fill="#765B4A"/>
<path d="M253.458 80.168C253.458 78.392 253.686 77.036 254.142 76.1C254.61 75.152 255.12 74.474 255.672 74.066C256.02 73.802 256.356 73.628 256.68 73.544C257.004 73.448 257.274 73.4 257.49 73.4C257.73 73.4 257.988 73.424 258.264 73.472C258.552 73.52 258.834 73.604 259.11 73.724C259.866 74.024 260.556 74.612 261.18 75.488C261.816 76.352 262.134 77.648 262.134 79.376C262.134 79.616 262.128 79.856 262.116 80.096C262.104 80.336 262.08 80.576 262.044 80.816C261.888 82.208 261.48 83.48 260.82 84.632C260.172 85.784 259.236 86.36 258.012 86.36C258 86.36 257.988 86.36 257.976 86.36C257.976 86.36 257.97 86.36 257.958 86.36C256.83 86.348 255.798 85.814 254.862 84.758C253.926 83.69 253.458 82.16 253.458 80.168ZM254.772 79.79C254.82 81.638 255.108 83.036 255.636 83.984C256.164 84.932 256.74 85.526 257.364 85.766C257.472 85.814 257.58 85.85 257.688 85.874C257.808 85.886 257.922 85.892 258.03 85.892C258.042 85.892 258.048 85.892 258.048 85.892C258.06 85.892 258.072 85.892 258.084 85.892C258.732 85.88 259.326 85.466 259.866 84.65C260.406 83.822 260.676 82.142 260.676 79.61C260.676 77.81 260.46 76.508 260.028 75.704C259.596 74.9 259.122 74.372 258.606 74.12C258.402 74.024 258.198 73.958 257.994 73.922C257.79 73.886 257.604 73.868 257.436 73.868C257.34 73.868 257.238 73.88 257.13 73.904C257.034 73.916 256.932 73.934 256.824 73.958C256.332 74.126 255.876 74.558 255.456 75.254C255.048 75.95 254.82 77.096 254.772 78.692C254.772 78.74 254.766 78.788 254.754 78.836C254.754 78.884 254.754 78.926 254.754 78.962C254.754 79.01 254.754 79.058 254.754 79.106C254.754 79.154 254.754 79.202 254.754 79.25C254.754 79.298 254.754 79.346 254.754 79.394C254.754 79.43 254.76 79.472 254.772 79.52C254.772 79.568 254.772 79.616 254.772 79.664C254.772 79.7 254.772 79.742 254.772 79.79ZM266.874 80.114V79.394C266.886 79.394 266.892 79.394 266.892 79.394C266.904 79.382 266.916 79.376 266.928 79.376C267.876 79.016 268.746 78.488 269.538 77.792C270.342 77.084 270.744 76.25 270.744 75.29C270.744 74.858 270.6 74.522 270.312 74.282C270.036 74.03 269.676 73.904 269.232 73.904C268.644 73.904 268.11 74.15 267.63 74.642C267.15 75.122 266.79 75.656 266.55 76.244C266.526 76.16 266.472 76.022 266.388 75.83C266.304 75.626 266.172 75.404 265.992 75.164C266.7 74.444 267.36 73.958 267.972 73.706C268.584 73.442 269.148 73.31 269.664 73.31C270.48 73.31 271.068 73.49 271.428 73.85C271.788 74.198 271.974 74.582 271.986 75.002C271.986 75.014 271.986 75.026 271.986 75.038C271.986 75.038 271.986 75.044 271.986 75.056C271.986 75.2 271.974 75.344 271.95 75.488C271.926 75.632 271.884 75.782 271.824 75.938C271.668 76.406 271.392 76.862 270.996 77.306C270.6 77.738 270.12 78.098 269.556 78.386L269.61 78.494C269.718 78.47 269.832 78.458 269.952 78.458C270.072 78.446 270.192 78.44 270.312 78.44C270.372 78.44 270.426 78.44 270.474 78.44C270.522 78.44 270.57 78.44 270.618 78.44C271.278 78.44 271.812 78.68 272.22 79.16C272.628 79.64 272.856 80.162 272.904 80.726C272.904 80.762 272.904 80.798 272.904 80.834C272.904 80.858 272.904 80.888 272.904 80.924C272.904 81.212 272.868 81.53 272.796 81.878C272.736 82.214 272.64 82.562 272.508 82.922C272.184 83.75 271.626 84.512 270.834 85.208C270.054 85.904 268.98 86.252 267.612 86.252C267.252 86.252 266.94 86.216 266.676 86.144C266.424 86.072 266.178 85.982 265.938 85.874C265.926 85.862 265.908 85.856 265.884 85.856C265.872 85.844 265.86 85.832 265.848 85.82C265.908 85.724 265.968 85.61 266.028 85.478C266.088 85.346 266.142 85.214 266.19 85.082C266.226 84.974 266.256 84.872 266.28 84.776C266.316 84.68 266.346 84.59 266.37 84.506C266.418 84.566 266.472 84.638 266.532 84.722C266.592 84.794 266.664 84.866 266.748 84.938C266.94 85.118 267.174 85.286 267.45 85.442C267.738 85.598 268.074 85.676 268.458 85.676C269.31 85.676 270.042 85.286 270.654 84.506C271.278 83.714 271.59 82.754 271.59 81.626C271.59 80.882 271.368 80.306 270.924 79.898C270.48 79.49 269.994 79.262 269.466 79.214C269.43 79.202 269.388 79.196 269.34 79.196C269.304 79.196 269.268 79.196 269.232 79.196C269.076 79.196 268.908 79.214 268.728 79.25C268.56 79.286 268.386 79.334 268.206 79.394C267.966 79.478 267.732 79.586 267.504 79.718C267.276 79.838 267.066 79.97 266.874 80.114Z" fill="#765B4A"/>
<circle cx="158.5" cy="216.5" r="4.5" fill="#765B4A"/>
<circle cx="289.5" cy="84.5" r="4.5" fill="#765B4A"/>
<path d="M1.944 361.224C1.944 358.856 2.248 357.048 2.856 355.8C3.48 354.536 4.16 353.632 4.896 353.088C5.36 352.736 5.808 352.504 6.24 352.392C6.672 352.264 7.032 352.2 7.32 352.2C7.64 352.2 7.984 352.232 8.352 352.296C8.736 352.36 9.112 352.472 9.48 352.632C10.488 353.032 11.408 353.816 12.24 354.984C13.088 356.136 13.512 357.864 13.512 360.168C13.512 360.488 13.504 360.808 13.488 361.128C13.472 361.448 13.44 361.768 13.392 362.088C13.184 363.944 12.64 365.64 11.76 367.176C10.896 368.712 9.648 369.48 8.016 369.48C8 369.48 7.984 369.48 7.968 369.48C7.968 369.48 7.96 369.48 7.944 369.48C6.44 369.464 5.064 368.752 3.816 367.344C2.568 365.92 1.944 363.88 1.944 361.224ZM3.696 360.72C3.76 363.184 4.144 365.048 4.848 366.312C5.552 367.576 6.32 368.368 7.152 368.688C7.296 368.752 7.44 368.8 7.584 368.832C7.744 368.848 7.896 368.856 8.04 368.856C8.056 368.856 8.064 368.856 8.064 368.856C8.08 368.856 8.096 368.856 8.112 368.856C8.976 368.84 9.768 368.288 10.488 367.2C11.208 366.096 11.568 363.856 11.568 360.48C11.568 358.08 11.28 356.344 10.704 355.272C10.128 354.2 9.496 353.496 8.808 353.16C8.536 353.032 8.264 352.944 7.992 352.896C7.72 352.848 7.472 352.824 7.248 352.824C7.12 352.824 6.984 352.84 6.84 352.872C6.712 352.888 6.576 352.912 6.432 352.944C5.776 353.168 5.168 353.744 4.608 354.672C4.064 355.6 3.76 357.128 3.696 359.256C3.696 359.32 3.688 359.384 3.672 359.448C3.672 359.512 3.672 359.568 3.672 359.616C3.672 359.68 3.672 359.744 3.672 359.808C3.672 359.872 3.672 359.936 3.672 360C3.672 360.064 3.672 360.128 3.672 360.192C3.672 360.24 3.68 360.296 3.696 360.36C3.696 360.424 3.696 360.488 3.696 360.552C3.696 360.6 3.696 360.656 3.696 360.72ZM18.2534 355.92V355.008C19.2454 354.608 20.2134 354.144 21.1574 353.616C22.1014 353.072 23.0294 352.456 23.9414 351.768H24.0614C23.9334 352.616 23.8294 353.608 23.7494 354.744C23.6854 355.864 23.6534 357.648 23.6534 360.096C23.6534 360.272 23.6534 360.44 23.6534 360.6C23.6534 360.76 23.6534 360.92 23.6534 361.08C23.6534 364.392 23.7414 366.424 23.9174 367.176C24.1094 367.928 24.7814 368.304 25.9334 368.304H26.1974V369.024C26.1334 369.008 26.0694 369 26.0054 369C25.9574 369 25.9094 369 25.8614 369C25.8454 369 25.8294 369 25.8134 369C25.7654 369 25.7174 369 25.6694 369C25.6374 368.984 25.5974 368.976 25.5494 368.976C25.2934 368.976 25.0614 368.968 24.8534 368.952C24.6614 368.936 24.4774 368.92 24.3014 368.904C24.2854 368.888 24.2614 368.88 24.2294 368.88C24.1974 368.88 24.1654 368.88 24.1334 368.88C23.9574 368.864 23.7734 368.848 23.5814 368.832C23.3894 368.816 23.1654 368.808 22.9094 368.808C22.3174 368.808 21.8694 368.824 21.5654 368.856C21.2774 368.872 21.0454 368.888 20.8694 368.904C20.8214 368.92 20.7734 368.936 20.7254 368.952C20.6934 368.952 20.6534 368.952 20.6054 368.952C20.4934 368.968 20.3654 368.984 20.2214 369C20.0774 369 19.8854 369 19.6454 369L19.1894 369.024V368.304H19.4534C19.5814 368.304 19.7014 368.304 19.8134 368.304C19.9414 368.304 20.0614 368.304 20.1734 368.304C20.7494 368.304 21.1814 368.088 21.4694 367.656C21.7734 367.224 21.9334 366.032 21.9494 364.08C21.9494 363.744 21.9494 363.408 21.9494 363.072C21.9494 362.72 21.9494 362.376 21.9494 362.04C21.9494 361.928 21.9494 361.816 21.9494 361.704C21.9494 361.592 21.9494 361.48 21.9494 361.368C21.9494 361.144 21.9494 360.92 21.9494 360.696C21.9494 360.456 21.9494 360.224 21.9494 360C21.9494 359.888 21.9494 359.784 21.9494 359.688C21.9494 359.576 21.9494 359.472 21.9494 359.376C21.9494 357.232 21.9094 355.912 21.8294 355.416C21.7654 354.904 21.5014 354.648 21.0374 354.648C20.8934 354.648 20.7334 354.672 20.5574 354.72C20.3814 354.768 20.2134 354.824 20.0534 354.888C19.9094 354.952 19.7654 355.024 19.6214 355.104C19.4774 355.168 19.3414 355.24 19.2134 355.32C19.0054 355.432 18.8134 355.552 18.6374 355.68C18.4614 355.792 18.3334 355.872 18.2534 355.92Z" fill="#E08B66"/>
<circle cx="94.5" cy="361.5" r="5.5" fill="#AF6A4D" fill-opacity="0.8"/>
<circle cx="94.5" cy="361.5" r="8" stroke="#AF6A4D" stroke-opacity="0.8"/>
<line x1="42" y1="360.5" x2="76" y2="360.5" stroke="#E08B66" stroke-opacity="0.8"/>
</svg>
