<svg width="268" height="52" viewBox="0 0 268 52" fill="none" xmlns="http://www.w3.org/2000/svg">
<path opacity="0.5" fill-rule="evenodd" clip-rule="evenodd" d="M47.0992 19.3483L31.399 29.0629L47.0157 38.8585L62.7159 29.1439L47.0157 19.4293L62.7159 9.71463L47.0157 0L31.3992 9.71455L15.7002 0.000650951L0 9.71528L15.7002 19.349L0 29.0636L15.7002 38.8592L31.4003 29.1445L15.7002 19.4299L31.4002 9.71535L47.0992 19.3483ZM31.4002 9.71535L31.4003 9.71528L31.3992 9.71455L31.399 9.71463L31.4002 9.71535ZM15.6154 41.9347L31.3155 32.2201L47.0157 41.9347L31.3155 51.6494L15.6154 41.9347Z" fill="white"/>
<path opacity="0.5" fill-rule="evenodd" clip-rule="evenodd" d="M189.896 42.5011L190.475 37.682C191.881 41.1125 194.775 43.1546 199.241 43.2362C206.023 43.2362 210.488 38.2537 210.488 29.5139V28.6971C210.488 19.9572 205.775 15.6282 199.407 15.5465C195.189 15.5465 192.212 17.4251 190.723 20.8557V7.37842H183.942V42.5011H189.896ZM86.3559 9.99223H73.7854V42.5012H86.604C94.7914 42.5012 100.994 37.7637 100.994 27.2269V25.0215C100.994 14.5663 94.3779 9.99223 86.3559 9.99223ZM80.8163 36.5385V15.8733H85.9438C90.575 15.8733 93.8004 18.8138 93.8004 25.3483V27.0636C93.8004 33.598 90.7404 36.5385 86.1919 36.5385H80.8163ZM104.797 16.1999H110.338L111.248 22.3259C112.323 18.1602 115.052 15.9548 120.014 15.9548H121.751V22.9794H118.856C113.15 22.9794 111.744 24.9397 111.744 30.494V42.5827H104.797V16.1999ZM123.156 29.187V29.9222C123.156 38.5803 128.036 43.1544 136.637 43.2361C144.741 43.2361 150.117 38.5803 150.117 29.9222V29.187C150.117 20.3655 144.576 15.5464 136.637 15.5464C128.863 15.5464 123.156 20.3655 123.156 29.187ZM143.008 29.8407V29.1873C143.008 24.2865 140.527 21.346 136.557 21.346C132.67 21.346 130.107 24.0414 130.107 29.1873V29.8407C130.107 34.5782 132.588 37.2737 136.557 37.2737C140.527 37.192 143.008 34.5782 143.008 29.8407ZM159.547 16.1998H153.758L153.675 51.6492H160.457V38.3353C161.863 41.3575 164.757 43.2361 168.975 43.2361C175.26 43.2361 180.222 38.662 180.222 30.0038V29.2687C180.222 20.3655 175.756 15.5464 168.975 15.5464C164.592 15.5464 161.614 17.8334 160.209 21.1823L159.547 16.1998ZM173.192 29.8405V29.2688C173.192 24.0412 170.462 21.4274 166.824 21.4274C162.937 21.4274 160.373 24.3679 160.373 29.2688V29.7589C160.373 34.4147 162.854 37.3552 166.741 37.3552C170.711 37.2735 173.192 34.7414 173.192 29.8405ZM203.377 28.8606C203.377 24.0414 200.731 21.346 197.009 21.346C193.205 21.346 190.559 24.3681 190.559 28.9423V29.514C190.559 34.4149 193.122 37.2737 196.927 37.2737C200.979 37.2737 203.377 34.7416 203.377 29.514V28.8606ZM213.468 29.187V29.9222C213.468 38.5803 218.347 43.1544 226.948 43.2361C234.97 43.2361 240.428 38.5803 240.428 29.9222V29.187C240.428 20.3655 234.887 15.5464 226.948 15.5464C219.174 15.5464 213.468 20.3655 213.468 29.187ZM233.397 29.1873C233.397 24.2865 230.916 21.346 226.946 21.346C223.059 21.346 220.495 24.0414 220.495 29.1873V29.8407C220.495 34.5782 222.976 37.2737 226.946 37.2737C230.916 37.192 233.397 34.5782 233.397 29.8407V29.1873ZM240.181 16.1998L249.527 28.8603L239.354 42.501H247.542L253.496 33.7612L259.616 42.501H267.473L257.466 28.7786L266.977 16.1998H259.037L253.579 24.1228L248.203 16.1998H240.181Z" fill="#F8F8F8"/>
</svg>
