<svg width="24" height="16" viewBox="0 0 24 16" fill="none" xmlns="http://www.w3.org/2000/svg">
<path d="M23.0112 0.281281H0.988783C0.442688 0.281281 0 0.723968 0 1.27006V14.7299C0 15.276 0.442688 15.7187 0.988783 15.7187H23.0112C23.5573 15.7187 24 15.276 24 14.7299V1.27006C24 0.723968 23.5573 0.281281 23.0112 0.281281ZM0.988783 1.05781H23.0112C23.1041 1.05826 23.1859 1.11909 23.2131 1.20794L12 8.21225L0.786885 1.20794C0.814064 1.11909 0.895859 1.05826 0.988783 1.05781ZM0.776532 2.09319L8.84211 7.13029L0.776532 13.5289V2.09319ZM23.2235 14.7248C23.2235 14.842 23.1284 14.937 23.0112 14.937H0.988783C0.871592 14.937 0.776532 14.842 0.776532 14.7248V14.5177L9.54098 7.59103L11.7929 8.99914C11.9194 9.07893 12.0806 9.07893 12.2071 8.99914L14.459 7.59103L23.2235 14.5177V14.7248ZM23.2235 13.5289L15.1372 7.151L23.2235 2.13978V13.5289Z" fill="white"/>
</svg>
