<svg width="194" height="64" viewBox="0 0 194 64" fill="none" xmlns="http://www.w3.org/2000/svg">
<path opacity="0.5" fill-rule="evenodd" clip-rule="evenodd" d="M67.3294 48.6726C75.9689 48.6726 83.0087 42.0205 83.0087 32.9933C83.0087 23.9024 75.9689 17.314 67.3294 17.314C58.69 17.314 51.6501 23.9024 51.6501 32.9933C51.6501 42.0205 58.69 48.6726 67.3294 48.6726ZM67.3282 23.4921C72.0637 23.4921 76.1438 27.3518 76.1438 32.993C76.1438 38.5705 72.0637 42.4939 67.3282 42.4939C62.5927 42.4939 58.5126 38.5776 58.5126 32.993C58.5126 27.3518 62.5927 23.4921 67.3282 23.4921Z" fill="#F8F8F8"/>
<path opacity="0.5" fill-rule="evenodd" clip-rule="evenodd" d="M100.531 48.6726C109.17 48.6726 116.21 42.0205 116.21 32.9933C116.21 23.9024 109.17 17.314 100.531 17.314C91.8914 17.314 84.8516 23.9094 84.8516 32.9933C84.8516 42.0205 91.8914 48.6726 100.531 48.6726ZM100.53 23.4921C105.265 23.4921 109.346 27.3518 109.346 32.993C109.346 38.5705 105.265 42.4939 100.53 42.4939C95.7944 42.4939 91.7143 38.5776 91.7143 32.993C91.7143 27.3518 95.7944 23.4921 100.53 23.4921Z" fill="#F8F8F8"/>
<path opacity="0.5" fill-rule="evenodd" clip-rule="evenodd" d="M151.26 46.8658V18.2832H144.438V20.8751H144.187C142.572 19.0012 139.474 17.314 135.573 17.314C127.394 17.314 119.901 24.307 119.901 33.2961C119.901 42.2205 127.394 49.1562 135.573 49.1562C139.482 49.1562 142.579 47.4689 144.187 45.5376H144.438V47.8279C144.438 53.9235 141.097 57.1616 135.706 57.1616C131.31 57.1616 128.582 54.103 127.468 51.5111L121.214 54.0456C123.013 58.2673 127.785 63.4295 135.713 63.4295C144.135 63.4295 151.26 58.6263 151.26 46.8658ZM136.216 23.5889C141.106 23.5889 144.948 27.6886 144.948 33.2959C144.948 38.8459 141.106 42.8881 136.216 42.8881C131.26 42.8881 127.108 38.8459 127.108 33.2959C127.108 27.6886 131.26 23.5889 136.216 23.5889Z" fill="#F8F8F8"/>
<path opacity="0.5" d="M162.326 2.55664V48.6722H154.947V2.55664H162.326Z" fill="#F8F8F8"/>
<path opacity="0.5" fill-rule="evenodd" clip-rule="evenodd" d="M193.384 41.7236L187.93 38.1608C186.112 40.7764 183.63 42.5012 180.052 42.5012C176.481 42.5012 173.934 40.8965 172.297 37.7508L193.687 29.0699L192.959 27.2885C191.631 23.7893 187.57 17.314 179.266 17.314C171.02 17.314 164.173 23.6691 164.173 32.9933C164.173 41.7872 170.962 48.6726 180.052 48.6726C187.382 48.6726 191.624 44.2756 193.384 41.7236ZM185.441 26.7015L171.142 32.5194C170.962 26.4683 175.932 23.3791 179.503 23.3791C182.288 23.3791 184.654 24.7434 185.441 26.7015Z" fill="#F8F8F8"/>
<path opacity="0.5" d="M24.9627 30.3143V23.5102H47.6243C47.8458 24.696 47.9602 26.0988 47.9602 27.6172C47.9602 32.7221 46.5809 39.0344 42.1358 43.5319C37.8122 48.0872 32.2879 50.5167 24.9699 50.5167C11.4058 50.5167 0 39.3381 0 25.6143C0 11.8905 11.4058 0.711914 24.9699 0.711914C32.4737 0.711914 37.8193 3.69095 41.8356 7.57381L37.0904 12.375C34.2103 9.64178 30.3083 7.51597 24.9627 7.51597C15.0577 7.51597 7.31087 15.5926 7.31087 25.6143C7.31087 35.636 15.0577 43.7127 24.9627 43.7127C31.3874 43.7127 35.0465 41.1024 37.3905 38.7307C39.2915 36.8074 40.5421 34.0597 41.0352 30.307L24.9627 30.3143Z" fill="#F8F8F8"/>
</svg>
