<svg width="18" height="18" viewBox="0 0 18 18" fill="none" xmlns="http://www.w3.org/2000/svg">
<path fill-rule="evenodd" clip-rule="evenodd" d="M9 18C4.02965 18 0 13.9702 0 9C0 4.02965 4.02965 0 9 0C13.9707 0 18 4.02965 18 9C18 13.9702 13.9707 18 9 18ZM4.27735 15.056C4.30748 14.9913 5.79659 11.8295 10.3077 10.2578C10.3183 10.2538 10.3288 10.2504 10.3393 10.247L10.3586 10.2406C11.4396 13.05 11.8867 15.4041 12.0005 16.0779C11.0786 16.4694 10.0647 16.686 9.0002 16.686C7.2178 16.686 5.58117 16.0742 4.27735 15.056ZM10.6523 7.15969C10.832 7.52634 11.0035 7.89867 11.1632 8.27451C11.2201 8.40717 11.2751 8.53962 11.3291 8.67149C13.9837 8.33771 16.597 8.90412 16.6825 8.92271C16.6643 7.09864 16.0128 5.4266 14.9344 4.11749C14.9189 4.14058 13.6859 5.92101 10.6523 7.15969ZM13.2928 15.3747C13.2154 14.9149 12.8064 12.6587 11.7969 9.88491C14.2819 9.48715 16.4336 10.1698 16.5864 10.2191C16.2448 12.3623 15.0185 14.2094 13.2928 15.3747Z" fill="white"/>
<mask id="mask0" mask-type="alpha" maskUnits="userSpaceOnUse" x="0" y="0" width="18" height="18">
<path fill-rule="evenodd" clip-rule="evenodd" d="M9 18C4.02965 18 0 13.9702 0 9C0 4.02965 4.02965 0 9 0C13.9707 0 18 4.02965 18 9C18 13.9702 13.9707 18 9 18ZM4.27735 15.056C4.30748 14.9913 5.79659 11.8295 10.3077 10.2578C10.3183 10.2538 10.3288 10.2504 10.3393 10.247L10.3586 10.2406C11.4396 13.05 11.8867 15.4041 12.0005 16.0779C11.0786 16.4694 10.0647 16.686 9.0002 16.686C7.2178 16.686 5.58117 16.0742 4.27735 15.056ZM10.6523 7.15969C10.832 7.52634 11.0035 7.89867 11.1632 8.27451C11.2201 8.40717 11.2751 8.53962 11.3291 8.67149C13.9837 8.33771 16.597 8.90412 16.6825 8.92271C16.6643 7.09864 16.0128 5.4266 14.9344 4.11749C14.9189 4.14058 13.6859 5.92101 10.6523 7.15969ZM13.2928 15.3747C13.2154 14.9149 12.8064 12.6587 11.7969 9.88491C14.2819 9.48715 16.4336 10.1698 16.5864 10.2191C16.2448 12.3623 15.0185 14.2094 13.2928 15.3747Z" fill="white"/>
</mask>
<g mask="url(#mask0)">
</g>
</svg>
