<svg width="1170" height="75" viewBox="0 0 1170 75" fill="none" xmlns="http://www.w3.org/2000/svg">
<path d="M1.458 56.1675C1.458 54.3915 1.686 53.0355 2.142 52.0995C2.61 51.1515 3.12 50.4735 3.672 50.0655C4.02 49.8015 4.356 49.6275 4.68 49.5435C5.004 49.4475 5.274 49.3995 5.49 49.3995C5.73 49.3995 5.988 49.4235 6.264 49.4715C6.552 49.5195 6.834 49.6035 7.11 49.7235C7.866 50.0235 8.556 50.6115 9.18 51.4875C9.816 52.3515 10.134 53.6475 10.134 55.3755C10.134 55.6155 10.128 55.8555 10.116 56.0955C10.104 56.3355 10.08 56.5755 10.044 56.8155C9.888 58.2075 9.48 59.4795 8.82 60.6315C8.172 61.7835 7.236 62.3595 6.012 62.3595C6 62.3595 5.988 62.3595 5.976 62.3595C5.976 62.3595 5.97 62.3595 5.958 62.3595C4.83 62.3475 3.798 61.8135 2.862 60.7575C1.926 59.6895 1.458 58.1595 1.458 56.1675ZM2.772 55.7895C2.82 57.6375 3.108 59.0355 3.636 59.9835C4.164 60.9315 4.74 61.5255 5.364 61.7655C5.472 61.8135 5.58 61.8495 5.688 61.8735C5.808 61.8855 5.922 61.8915 6.03 61.8915C6.042 61.8915 6.048 61.8915 6.048 61.8915C6.06 61.8915 6.072 61.8915 6.084 61.8915C6.732 61.8795 7.326 61.4655 7.866 60.6495C8.406 59.8215 8.676 58.1415 8.676 55.6095C8.676 53.8095 8.46 52.5075 8.028 51.7035C7.596 50.8995 7.122 50.3715 6.606 50.1195C6.402 50.0235 6.198 49.9575 5.994 49.9215C5.79 49.8855 5.604 49.8675 5.436 49.8675C5.34 49.8675 5.238 49.8795 5.13 49.9035C5.034 49.9155 4.932 49.9335 4.824 49.9575C4.332 50.1255 3.876 50.5575 3.456 51.2535C3.048 51.9495 2.82 53.0955 2.772 54.6915C2.772 54.7395 2.766 54.7875 2.754 54.8355C2.754 54.8835 2.754 54.9255 2.754 54.9615C2.754 55.0095 2.754 55.0575 2.754 55.1055C2.754 55.1535 2.754 55.2015 2.754 55.2495C2.754 55.2975 2.754 55.3455 2.754 55.3935C2.754 55.4295 2.76 55.4715 2.772 55.5195C2.772 55.5675 2.772 55.6155 2.772 55.6635C2.772 55.6995 2.772 55.7415 2.772 55.7895ZM14.1901 52.1895V51.5055C14.9341 51.2055 15.6601 50.8575 16.3681 50.4615C17.0761 50.0535 17.7721 49.5915 18.4561 49.0755H18.5461C18.4501 49.7115 18.3721 50.4555 18.3121 51.3075C18.2641 52.1475 18.2401 53.4855 18.2401 55.3215C18.2401 55.4535 18.2401 55.5795 18.2401 55.6995C18.2401 55.8195 18.2401 55.9395 18.2401 56.0595C18.2401 58.5435 18.3061 60.0675 18.4381 60.6315C18.5821 61.1955 19.0861 61.4775 19.9501 61.4775H20.1481V62.0175C20.1001 62.0055 20.0521 61.9995 20.0041 61.9995C19.9681 61.9995 19.9321 61.9995 19.8961 61.9995C19.8841 61.9995 19.8721 61.9995 19.8601 61.9995C19.8241 61.9995 19.7881 61.9995 19.7521 61.9995C19.7281 61.9875 19.6981 61.9815 19.6621 61.9815C19.4701 61.9815 19.2961 61.9755 19.1401 61.9635C18.9961 61.9515 18.8581 61.9395 18.7261 61.9275C18.7141 61.9155 18.6961 61.9095 18.6721 61.9095C18.6481 61.9095 18.6241 61.9095 18.6001 61.9095C18.4681 61.8975 18.3301 61.8855 18.1861 61.8735C18.0421 61.8615 17.8741 61.8555 17.6821 61.8555C17.2381 61.8555 16.9021 61.8675 16.6741 61.8915C16.4581 61.9035 16.2841 61.9155 16.1521 61.9275C16.1161 61.9395 16.0801 61.9515 16.0441 61.9635C16.0201 61.9635 15.9901 61.9635 15.9541 61.9635C15.8701 61.9755 15.7741 61.9875 15.6661 61.9995C15.5581 61.9995 15.4141 61.9995 15.2341 61.9995L14.8921 62.0175V61.4775H15.0901C15.1861 61.4775 15.2761 61.4775 15.3601 61.4775C15.4561 61.4775 15.5461 61.4775 15.6301 61.4775C16.0621 61.4775 16.3861 61.3155 16.6021 60.9915C16.8301 60.6675 16.9501 59.7735 16.9621 58.3095C16.9621 58.0575 16.9621 57.8055 16.9621 57.5535C16.9621 57.2895 16.9621 57.0315 16.9621 56.7795C16.9621 56.6955 16.9621 56.6115 16.9621 56.5275C16.9621 56.4435 16.9621 56.3595 16.9621 56.2755C16.9621 56.1075 16.9621 55.9395 16.9621 55.7715C16.9621 55.5915 16.9621 55.4175 16.9621 55.2495C16.9621 55.1655 16.9621 55.0875 16.9621 55.0155C16.9621 54.9315 16.9621 54.8535 16.9621 54.7815C16.9621 53.1735 16.9321 52.1835 16.8721 51.8115C16.8241 51.4275 16.6261 51.2355 16.2781 51.2355C16.1701 51.2355 16.0501 51.2535 15.9181 51.2895C15.7861 51.3255 15.6601 51.3675 15.5401 51.4155C15.4321 51.4635 15.3241 51.5175 15.2161 51.5775C15.1081 51.6255 15.0061 51.6795 14.9101 51.7395C14.7541 51.8235 14.6101 51.9135 14.4781 52.0095C14.3461 52.0935 14.2501 52.1535 14.1901 52.1895Z" fill="#86533C"/>
<path d="M390.916 55.3355C390.916 51.7835 391.372 49.0715 392.284 47.1995C393.22 45.3035 394.24 43.9475 395.344 43.1315C396.04 42.6035 396.712 42.2555 397.36 42.0875C398.008 41.8955 398.548 41.7995 398.98 41.7995C399.46 41.7995 399.976 41.8475 400.528 41.9435C401.104 42.0395 401.668 42.2075 402.22 42.4475C403.732 43.0475 405.112 44.2235 406.36 45.9755C407.632 47.7035 408.268 50.2955 408.268 53.7515C408.268 54.2315 408.256 54.7115 408.232 55.1915C408.208 55.6715 408.16 56.1515 408.088 56.6315C407.776 59.4155 406.96 61.9595 405.64 64.2635C404.344 66.5675 402.472 67.7195 400.024 67.7195C400 67.7195 399.976 67.7195 399.952 67.7195C399.952 67.7195 399.94 67.7195 399.916 67.7195C397.66 67.6955 395.596 66.6275 393.724 64.5155C391.852 62.3795 390.916 59.3195 390.916 55.3355ZM393.544 54.5795C393.64 58.2755 394.216 61.0715 395.272 62.9675C396.328 64.8635 397.48 66.0515 398.728 66.5315C398.944 66.6275 399.16 66.6995 399.376 66.7475C399.616 66.7715 399.844 66.7835 400.06 66.7835C400.084 66.7835 400.096 66.7835 400.096 66.7835C400.12 66.7835 400.144 66.7835 400.168 66.7835C401.464 66.7595 402.652 65.9315 403.732 64.2995C404.812 62.6435 405.352 59.2835 405.352 54.2195C405.352 50.6195 404.92 48.0155 404.056 46.4075C403.192 44.7995 402.244 43.7435 401.212 43.2395C400.804 43.0475 400.396 42.9155 399.988 42.8435C399.58 42.7715 399.208 42.7355 398.872 42.7355C398.68 42.7355 398.476 42.7595 398.26 42.8075C398.068 42.8315 397.864 42.8675 397.648 42.9155C396.664 43.2515 395.752 44.1155 394.912 45.5075C394.096 46.8995 393.64 49.1915 393.544 52.3835C393.544 52.4795 393.532 52.5755 393.508 52.6715C393.508 52.7675 393.508 52.8515 393.508 52.9235C393.508 53.0195 393.508 53.1155 393.508 53.2115C393.508 53.3075 393.508 53.4035 393.508 53.4995C393.508 53.5955 393.508 53.6915 393.508 53.7875C393.508 53.8595 393.52 53.9435 393.544 54.0395C393.544 54.1355 393.544 54.2315 393.544 54.3275C393.544 54.3995 393.544 54.4835 393.544 54.5795ZM428.24 61.2035H429.572C429.452 61.5635 429.344 61.8875 429.248 62.1755C429.152 62.4635 429.068 62.7395 428.996 63.0035C428.972 63.0995 428.948 63.1955 428.924 63.2915C428.9 63.3635 428.876 63.4355 428.852 63.5075C428.78 63.7235 428.708 63.9635 428.636 64.2275C428.588 64.4675 428.528 64.7315 428.456 65.0195C428.384 65.2835 428.324 65.5235 428.276 65.7395C428.228 65.9315 428.18 66.1115 428.132 66.2795C428.132 66.3515 428.12 66.4235 428.096 66.4955C428.096 66.5675 428.084 66.6395 428.06 66.7115C428.06 66.7595 428.048 66.8195 428.024 66.8915C428.024 66.9395 428.024 66.9755 428.024 66.9995C427.952 67.0235 427.88 67.0475 427.808 67.0715C427.736 67.0955 427.664 67.1195 427.592 67.1435C427.304 67.2155 426.992 67.2755 426.656 67.3235C426.32 67.3955 425.972 67.4315 425.612 67.4315C425.396 67.4315 425.18 67.4195 424.964 67.3955C424.748 67.3715 424.544 67.3475 424.352 67.3235C424.208 67.2995 424.064 67.2755 423.92 67.2515C423.776 67.2275 423.632 67.2035 423.488 67.1795C423.416 67.1795 423.344 67.1675 423.272 67.1435C423.2 67.1435 423.128 67.1315 423.056 67.1075C421.856 66.9155 420.728 66.7955 419.672 66.7475C418.616 66.6755 417.74 66.6395 417.044 66.6395C416.756 66.6395 416.48 66.6515 416.216 66.6755C415.952 66.6755 415.688 66.6755 415.424 66.6755C414.968 66.7235 414.5 66.7955 414.02 66.8915C413.54 66.9635 413 67.1075 412.4 67.3235V66.4235C412.568 66.2795 412.736 66.1355 412.904 65.9915C413.096 65.8475 413.276 65.6915 413.444 65.5235C414.74 64.3475 416 62.9555 417.224 61.3475C418.472 59.7395 419.576 58.0955 420.536 56.4155C421.52 54.6875 422.312 53.0195 422.912 51.4115C423.512 49.7795 423.812 48.3755 423.812 47.1995C423.812 45.9035 423.524 44.9195 422.948 44.2475C422.372 43.5755 421.736 43.1555 421.04 42.9875C420.92 42.9635 420.788 42.9515 420.644 42.9515C420.524 42.9275 420.404 42.9155 420.284 42.9155C419.876 42.9155 419.408 42.9875 418.88 43.1315C418.376 43.2515 417.848 43.4915 417.296 43.8515C416.744 44.2115 416.204 44.7035 415.676 45.3275C415.172 45.9275 414.716 46.7075 414.308 47.6675C414.26 47.4995 414.2 47.3555 414.128 47.2355C414.08 47.1155 414.02 47.0075 413.948 46.9115C413.9 46.8395 413.852 46.7795 413.804 46.7315C413.78 46.6595 413.744 46.5875 413.696 46.5155C413.648 46.4435 413.6 46.3835 413.552 46.3355C413.528 46.2635 413.504 46.2035 413.48 46.1555C413.456 46.1315 413.432 46.1075 413.408 46.0835C413.408 46.0595 413.396 46.0355 413.372 46.0115C413.348 45.9635 413.312 45.9155 413.264 45.8675C413.216 45.7955 413.156 45.7235 413.084 45.6515C414.308 44.3795 415.616 43.3955 417.008 42.6995C418.4 41.9795 419.888 41.6195 421.472 41.6195C423.104 41.6195 424.424 42.0875 425.432 43.0235C426.44 43.9595 426.944 45.2435 426.944 46.8755C426.944 46.9955 426.932 47.1155 426.908 47.2355C426.908 47.3555 426.908 47.4755 426.908 47.5955C426.692 49.6835 425.756 51.8435 424.1 54.0755C422.444 56.3075 420.56 58.8755 418.448 61.7795C418.28 62.0195 418.124 62.2475 417.98 62.4635C417.836 62.6555 417.692 62.8355 417.548 63.0035C417.404 63.1955 417.248 63.3755 417.08 63.5435C416.936 63.6875 416.78 63.8435 416.612 64.0115C416.516 64.0595 416.432 64.1195 416.36 64.1915C416.288 64.2395 416.204 64.2995 416.108 64.3715L416.216 64.5155C416.264 64.4915 416.336 64.4675 416.432 64.4435C416.552 64.3955 416.696 64.3475 416.864 64.2995C417.152 64.2275 417.512 64.1675 417.944 64.1195C418.4 64.0475 418.94 64.0115 419.564 64.0115C419.756 64.0115 419.936 64.0235 420.104 64.0475C420.296 64.0475 420.476 64.0595 420.644 64.0835C420.74 64.0835 420.824 64.0955 420.896 64.1195C420.992 64.1195 421.088 64.1195 421.184 64.1195C423.008 64.2635 424.196 64.3475 424.748 64.3715C425.3 64.3955 425.684 64.4075 425.9 64.4075C426.044 64.4075 426.188 64.3955 426.332 64.3715C426.476 64.3235 426.632 64.2515 426.8 64.1555C427.088 63.9875 427.364 63.6875 427.628 63.2555C427.892 62.7995 428.096 62.1155 428.24 61.2035Z" fill="#E08B66"/>
<path d="M806.458 56.1675C806.458 54.3915 806.686 53.0355 807.142 52.0995C807.61 51.1515 808.12 50.4735 808.672 50.0655C809.02 49.8015 809.356 49.6275 809.68 49.5435C810.004 49.4475 810.274 49.3995 810.49 49.3995C810.73 49.3995 810.988 49.4235 811.264 49.4715C811.552 49.5195 811.834 49.6035 812.11 49.7235C812.866 50.0235 813.556 50.6115 814.18 51.4875C814.816 52.3515 815.134 53.6475 815.134 55.3755C815.134 55.6155 815.128 55.8555 815.116 56.0955C815.104 56.3355 815.08 56.5755 815.044 56.8155C814.888 58.2075 814.48 59.4795 813.82 60.6315C813.172 61.7835 812.236 62.3595 811.012 62.3595C811 62.3595 810.988 62.3595 810.976 62.3595C810.976 62.3595 810.97 62.3595 810.958 62.3595C809.83 62.3475 808.798 61.8135 807.862 60.7575C806.926 59.6895 806.458 58.1595 806.458 56.1675ZM807.772 55.7895C807.82 57.6375 808.108 59.0355 808.636 59.9835C809.164 60.9315 809.74 61.5255 810.364 61.7655C810.472 61.8135 810.58 61.8495 810.688 61.8735C810.808 61.8855 810.922 61.8915 811.03 61.8915C811.042 61.8915 811.048 61.8915 811.048 61.8915C811.06 61.8915 811.072 61.8915 811.084 61.8915C811.732 61.8795 812.326 61.4655 812.866 60.6495C813.406 59.8215 813.676 58.1415 813.676 55.6095C813.676 53.8095 813.46 52.5075 813.028 51.7035C812.596 50.8995 812.122 50.3715 811.606 50.1195C811.402 50.0235 811.198 49.9575 810.994 49.9215C810.79 49.8855 810.604 49.8675 810.436 49.8675C810.34 49.8675 810.238 49.8795 810.13 49.9035C810.034 49.9155 809.932 49.9335 809.824 49.9575C809.332 50.1255 808.876 50.5575 808.456 51.2535C808.048 51.9495 807.82 53.0955 807.772 54.6915C807.772 54.7395 807.766 54.7875 807.754 54.8355C807.754 54.8835 807.754 54.9255 807.754 54.9615C807.754 55.0095 807.754 55.0575 807.754 55.1055C807.754 55.1535 807.754 55.2015 807.754 55.2495C807.754 55.2975 807.754 55.3455 807.754 55.3935C807.754 55.4295 807.76 55.4715 807.772 55.5195C807.772 55.5675 807.772 55.6155 807.772 55.6635C807.772 55.6995 807.772 55.7415 807.772 55.7895ZM819.874 56.1135V55.3935C819.886 55.3935 819.892 55.3935 819.892 55.3935C819.904 55.3815 819.916 55.3755 819.928 55.3755C820.876 55.0155 821.746 54.4875 822.538 53.7915C823.342 53.0835 823.744 52.2495 823.744 51.2895C823.744 50.8575 823.6 50.5215 823.312 50.2815C823.036 50.0295 822.676 49.9035 822.232 49.9035C821.644 49.9035 821.11 50.1495 820.63 50.6415C820.15 51.1215 819.79 51.6555 819.55 52.2435C819.526 52.1595 819.472 52.0215 819.388 51.8295C819.304 51.6255 819.172 51.4035 818.992 51.1635C819.7 50.4435 820.36 49.9575 820.972 49.7055C821.584 49.4415 822.148 49.3095 822.664 49.3095C823.48 49.3095 824.068 49.4895 824.428 49.8495C824.788 50.1975 824.974 50.5815 824.986 51.0015C824.986 51.0135 824.986 51.0255 824.986 51.0375C824.986 51.0375 824.986 51.0435 824.986 51.0555C824.986 51.1995 824.974 51.3435 824.95 51.4875C824.926 51.6315 824.884 51.7815 824.824 51.9375C824.668 52.4055 824.392 52.8615 823.996 53.3055C823.6 53.7375 823.12 54.0975 822.556 54.3855L822.61 54.4935C822.718 54.4695 822.832 54.4575 822.952 54.4575C823.072 54.4455 823.192 54.4395 823.312 54.4395C823.372 54.4395 823.426 54.4395 823.474 54.4395C823.522 54.4395 823.57 54.4395 823.618 54.4395C824.278 54.4395 824.812 54.6795 825.22 55.1595C825.628 55.6395 825.856 56.1615 825.904 56.7255C825.904 56.7615 825.904 56.7975 825.904 56.8335C825.904 56.8575 825.904 56.8875 825.904 56.9235C825.904 57.2115 825.868 57.5295 825.796 57.8775C825.736 58.2135 825.64 58.5615 825.508 58.9215C825.184 59.7495 824.626 60.5115 823.834 61.2075C823.054 61.9035 821.98 62.2515 820.612 62.2515C820.252 62.2515 819.94 62.2155 819.676 62.1435C819.424 62.0715 819.178 61.9815 818.938 61.8735C818.926 61.8615 818.908 61.8555 818.884 61.8555C818.872 61.8435 818.86 61.8315 818.848 61.8195C818.908 61.7235 818.968 61.6095 819.028 61.4775C819.088 61.3455 819.142 61.2135 819.19 61.0815C819.226 60.9735 819.256 60.8715 819.28 60.7755C819.316 60.6795 819.346 60.5895 819.37 60.5055C819.418 60.5655 819.472 60.6375 819.532 60.7215C819.592 60.7935 819.664 60.8655 819.748 60.9375C819.94 61.1175 820.174 61.2855 820.45 61.4415C820.738 61.5975 821.074 61.6755 821.458 61.6755C822.31 61.6755 823.042 61.2855 823.654 60.5055C824.278 59.7135 824.59 58.7535 824.59 57.6255C824.59 56.8815 824.368 56.3055 823.924 55.8975C823.48 55.4895 822.994 55.2615 822.466 55.2135C822.43 55.2015 822.388 55.1955 822.34 55.1955C822.304 55.1955 822.268 55.1955 822.232 55.1955C822.076 55.1955 821.908 55.2135 821.728 55.2495C821.56 55.2855 821.386 55.3335 821.206 55.3935C820.966 55.4775 820.732 55.5855 820.504 55.7175C820.276 55.8375 820.066 55.9695 819.874 56.1135Z" fill="white"/>
<line x1="16" y1="8.49951" x2="1609" y2="8.49937" stroke="#F1C9B3" stroke-opacity="0.37"/>
<line x1="16" y1="8.50024" x2="411" y2="8.50021" stroke="#AF6A4D" stroke-width="3"/>
<circle cx="12.5" cy="8.50061" r="4.5" fill="#AF6A4D"/>
<circle cx="818.5" cy="8.49951" r="4.5" fill="#765B4A"/>
<circle cx="410.5" cy="8.5" r="5.5" fill="#AF6A4D"/>
<circle cx="410.5" cy="8.5" r="8" stroke="#D7825D" stroke-opacity="0.8"/>
</svg>
