<svg width="126" height="45" viewBox="0 0 126 45" fill="none" xmlns="http://www.w3.org/2000/svg">
<mask id="mask0" mask-type="alpha" maskUnits="userSpaceOnUse" x="0" y="2" width="43" height="43">
<path fill-rule="evenodd" clip-rule="evenodd" d="M0 2.45901H42.4015V44.6925H0V2.45901Z" fill="white"/>
</mask>
<g mask="url(#mask0)">
<path fill-rule="evenodd" clip-rule="evenodd" d="M15.2269 42.5978H20.4341C22.7837 42.5978 24.4877 42.4193 25.5507 42.0576C26.6121 41.6989 27.5011 41.0647 28.2163 40.1533C29.1355 38.9914 29.7827 37.3831 30.1622 35.3317C30.5387 33.2803 30.7277 30.1796 30.7277 26.0361V23.0529C30.7277 18.3988 30.6006 15.0664 30.3451 13.0573C30.0896 11.0481 29.6557 9.43989 29.0433 8.23566C28.3085 6.81689 27.3529 5.82406 26.1781 5.25092C25.0033 4.6809 23.0892 4.39433 20.4341 4.39433H15.2269V42.5978ZM-0.000183105 42.598H4.96363V4.39456H-0.000183105V2.45901H20.8938C23.8769 2.45901 26.4291 2.75655 28.5519 3.34849C30.6778 3.94043 32.6161 4.9035 34.3745 6.23458C36.8859 8.09808 38.8515 10.5614 40.2712 13.6291C41.691 16.6953 42.4016 20.0057 42.4016 23.5605C42.4016 27.1356 41.6759 30.4664 40.2259 33.5561C38.7759 36.6426 36.7635 39.1388 34.1901 41.043C32.4952 42.2927 30.5447 43.2135 28.3387 43.8038C26.1328 44.3958 23.57 44.6933 20.6488 44.6933H-0.000183105V42.598Z" fill="white"/>
</g>
<mask id="mask1" mask-type="alpha" maskUnits="userSpaceOnUse" x="46" y="17" width="18" height="27">
<path fill-rule="evenodd" clip-rule="evenodd" d="M46.5938 17.6665H63.1293V43.4008H46.5938V17.6665Z" fill="white"/>
</mask>
<g mask="url(#mask1)">
<path fill-rule="evenodd" clip-rule="evenodd" d="M46.989 43.4015V41.4941H50.6442V20.3562H46.5938L46.6238 18.418C48.8767 18.3563 51.0545 18.2622 53.1557 18.1356C55.2568 18.0106 57.2918 17.8548 59.2622 17.6665V41.4941H63.1293V43.4015H46.989Z" fill="white"/>
</g>
<mask id="mask2" mask-type="alpha" maskUnits="userSpaceOnUse" x="68" y="0" width="39" height="44">
<path fill-rule="evenodd" clip-rule="evenodd" d="M68.3633 0.819824H106.253V43.4011H68.3633V0.819824Z" fill="white"/>
</mask>
<g mask="url(#mask2)">
<path fill-rule="evenodd" clip-rule="evenodd" d="M68.3633 43.4017V41.2892H73.5307V2.77288H69.0968V0.819824H104.499L104.627 12.0171H102.489C101.043 8.39205 99.5758 5.94481 98.0883 4.67541C96.5993 3.40758 94.4304 2.77288 91.5814 2.77288H84.2466V20.2714C84.4165 20.2919 84.6133 20.3077 84.8352 20.3188C85.0587 20.3314 85.3625 20.3361 85.745 20.3361C88.0619 20.3361 89.817 19.7235 91.0069 18.4968C92.1984 17.27 92.9744 15.2806 93.3349 12.5287H95.4723V30.7014H93.3349C93.1019 27.7568 92.3794 25.6458 91.1659 24.3654C89.9555 23.0881 88.0619 22.4471 85.49 22.4471H84.2466V41.2892H91.3579C94.8664 41.2892 97.6098 40.3624 99.5868 38.5057C101.564 36.6505 103.116 33.5481 104.243 29.1967H106.253L105.806 43.4017H68.3633Z" fill="white"/>
</g>
<mask id="mask3" mask-type="alpha" maskUnits="userSpaceOnUse" x="108" y="0" width="18" height="44">
<path fill-rule="evenodd" clip-rule="evenodd" d="M108.282 0H126V43.7997H108.282V0Z" fill="white"/>
</mask>
<g mask="url(#mask3)">
<path fill-rule="evenodd" clip-rule="evenodd" d="M108.675 41.8281H112.557V2.74866H108.282V0.776899C110.676 0.713088 113.003 0.609395 115.266 0.469011C117.528 0.328626 119.704 0.173885 121.79 0V41.8281H126V43.7999H108.675V41.8281Z" fill="white"/>
</g>
<path fill-rule="evenodd" clip-rule="evenodd" d="M62.3075 6.66639L58.5895 2.41162H54.8516L58.5371 6.66639H62.3075ZM55.25 14.6696L62.2616 7.34082H58.6008L55.25 14.6696ZM57.8539 7.34079H57.2415H54.6683H50.3641L54.0867 15.475L54.1113 15.5284L57.658 7.771L57.8539 7.34079ZM45.957 7.34082L52.981 14.6803L49.6225 7.34082H45.957ZM50.5781 6.66777H57.6422L55.7215 4.44961L54.1109 2.58691L51.675 5.40003L50.5781 6.66777ZM53.0236 2.80826L53.3676 2.41162H49.6265L45.9102 6.66639H49.6821L53.0236 2.80826Z" fill="#E08B66"/>
</svg>
