<svg width="32" height="32" viewBox="0 0 32 32" fill="none" xmlns="http://www.w3.org/2000/svg">
<g opacity="0.8">
<path d="M16.0015 0C9.78869 0 4.73438 5.13375 4.73438 11.4437V20.5566C4.73438 26.8666 9.78869 32 16.0015 32C22.2139 32 27.2686 26.8821 27.2686 20.5916V11.4437C27.2686 5.13375 22.2139 0 16.0015 0ZM25.1494 20.5916C25.1494 25.7138 21.0459 29.8808 16.0015 29.8808C10.9574 29.8808 6.85363 25.6979 6.85363 20.5563V11.4437C6.85363 6.30212 10.9574 2.11919 16.0015 2.11919C21.0459 2.11919 25.1494 6.30212 25.1494 11.4437V20.5916Z" fill="#F8F8F8" fill-opacity="0.8"/>
<path d="M16.001 8.75928C15.4158 8.75928 14.9414 9.23365 14.9414 9.8189V13.5275C14.9414 14.1128 15.4158 14.5872 16.001 14.5872C16.5863 14.5872 17.0606 14.1128 17.0606 13.5275V9.8189C17.0606 9.23365 16.5863 8.75928 16.001 8.75928Z" fill="#F8F8F8" fill-opacity="0.8"/>
</g>
</svg>
