<svg width="25" height="25" viewBox="0 0 25 25" fill="none" xmlns="http://www.w3.org/2000/svg">
<path d="M20.093 25.0001C19.0528 25.0001 17.7966 24.7395 16.415 24.2181C13.3862 23.0762 10.0908 20.8193 7.13591 17.8644C4.18022 14.9087 1.9233 11.6125 0.780549 8.58365C-0.257936 5.82978 -0.260459 3.5695 0.774662 2.53521C0.923498 2.38638 1.07486 2.22661 1.23126 2.0618C2.17557 1.06872 3.24264 -0.0488049 4.657 0.0016478C5.63158 0.04201 6.57588 0.647443 7.54289 1.85074C10.4002 5.40429 9.11197 6.67065 7.62109 8.13883L7.3579 8.3995C7.11404 8.64336 6.65324 9.77265 10.94 14.0595C12.3393 15.4587 13.5325 16.4829 14.486 17.1026C15.0864 17.4928 16.1602 18.0831 16.6008 17.6424L16.8657 17.375C18.3322 15.8875 19.5986 14.6035 23.1496 17.4583C24.3529 18.4253 24.9575 19.3688 24.9978 20.345C25.0559 21.7585 23.9299 22.8281 22.936 23.7716C22.772 23.928 22.6123 24.0794 22.4634 24.2274C21.9497 24.742 21.1281 25.0001 20.093 25.0001ZM4.55609 0.840844C3.55124 0.840844 2.64394 1.79608 1.8409 2.64117C1.67945 2.81102 1.52304 2.97583 1.36916 3.12972C0.598078 3.89996 0.67628 5.92395 1.56761 8.28766C2.66916 11.2072 4.85797 14.3975 7.73125 17.2708C10.6037 20.1424 13.7923 22.3312 16.7127 23.4319C19.0764 24.3249 21.1004 24.4006 21.8698 23.6312C22.0237 23.4773 22.1885 23.3209 22.3583 23.1603C23.2219 22.3396 24.2015 21.4096 24.1586 20.3778C24.1292 19.669 23.6129 18.9063 22.624 18.1116C19.665 15.732 18.8376 16.572 17.4653 17.9637L17.1962 18.2353C16.5403 18.892 15.4749 18.7465 14.0286 17.8064C13.0254 17.1539 11.786 16.0927 10.3464 14.6523C6.78862 11.0954 5.65092 8.91832 6.76424 7.80248L7.03248 7.5376C8.4275 6.16529 9.26922 5.33702 6.88869 2.37629C6.09238 1.38826 5.33054 0.871957 4.62168 0.841685C4.59982 0.840845 4.57796 0.840844 4.55609 0.840844Z" fill="white"/>
</svg>
