<svg width="25" height="26" viewBox="0 0 25 26" fill="none" xmlns="http://www.w3.org/2000/svg">
<path d="M24.7838 23.7303L18.707 17.6536C20.3371 15.7796 21.324 13.3344 21.324 10.662C21.324 4.77933 16.5391 0 10.662 0C4.77933 0 0 4.78487 0 10.662C0 16.5391 4.78487 21.324 10.662 21.324C13.3344 21.324 15.7796 20.3371 17.6536 18.707L23.7303 24.7838C23.8745 24.9279 24.0685 25.0055 24.257 25.0055C24.4456 25.0055 24.6396 24.9335 24.7838 24.7838C25.0721 24.4955 25.0721 24.0186 24.7838 23.7303ZM1.49146 10.662C1.49146 5.60546 5.60546 1.49701 10.6565 1.49701C15.713 1.49701 19.8215 5.611 19.8215 10.662C19.8215 15.713 15.713 19.8326 10.6565 19.8326C5.60546 19.8326 1.49146 15.7186 1.49146 10.662Z" fill="white"/>
</svg>
