<svg width="221" height="63" viewBox="0 0 221 63" fill="none" xmlns="http://www.w3.org/2000/svg">
<mask id="mask0" mask-type="alpha" maskUnits="userSpaceOnUse" x="7" y="1" width="48" height="62">
<path fill-rule="evenodd" clip-rule="evenodd" d="M7.56445 62.5407H54.8246V1.86328H7.56445V62.5407Z" fill="white"/>
</mask>
<g mask="url(#mask0)">
<path opacity="0.5" d="M40.3485 5.60146C39.4094 2.76077 36.305 1.20628 33.4148 2.12961C30.5241 3.05245 28.9423 6.10319 29.8819 8.94339L44.1109 51.9654C45.088 54.6189 48.005 56.1102 50.8051 55.3183C53.7256 54.492 55.506 51.4437 54.574 48.6249C54.5386 48.5174 40.3485 5.60146 40.3485 5.60146Z" fill="#F8F8F8"/>
</g>
<mask id="mask1" mask-type="alpha" maskUnits="userSpaceOnUse" x="7" y="1" width="48" height="62">
<path fill-rule="evenodd" clip-rule="evenodd" d="M7.56445 62.5407H54.8246V1.86328H7.56445V62.5407Z" fill="white"/>
</mask>
<g mask="url(#mask1)">
<path opacity="0.5" d="M18.3022 12.6413C17.3626 9.80107 14.2581 8.24658 11.3679 9.16942C8.47725 10.0923 6.8954 13.143 7.83498 15.9837L22.0641 59.0057C23.0411 61.6592 25.9582 63.1505 28.7582 62.3581C31.6788 61.5323 33.4592 58.484 32.5272 55.6647C32.4917 55.5577 18.3022 12.6413 18.3022 12.6413Z" fill="#F8F8F8"/>
</g>
<path opacity="0.5" d="M57.147 41.5718C59.9786 40.6786 61.5275 37.7258 60.6077 34.9763C59.6878 32.2273 56.6469 30.7227 53.8159 31.616L10.9326 45.1504C8.28758 46.0792 6.80111 48.8537 7.59049 51.517C8.4141 54.2949 11.4525 55.9883 14.2622 55.1018C14.3694 55.0681 57.147 41.5718 57.147 41.5718Z" fill="#F8F8F8"/>
<path opacity="0.5" d="M19.7688 53.4939C22.4228 52.6316 25.8433 51.5202 29.5139 50.3276C28.6516 47.6736 27.5402 44.2526 26.3472 40.5815L16.6016 43.7493L19.7688 53.4939Z" fill="#F8F8F8"/>
<path opacity="0.5" d="M40.9721 46.57C44.8344 45.3134 48.4242 44.1449 51.1881 43.2455C50.2841 40.4588 49.1185 36.8658 47.8678 33.0103L37.6514 36.3363L40.9721 46.57Z" fill="#F8F8F8"/>
<path opacity="0.5" d="M49.6056 19.9233C52.4274 19.005 53.9718 15.9692 53.0549 13.1425C52.1381 10.3162 49.1071 8.76933 46.2848 9.68764L3.54176 23.6025C0.905431 24.5575 -0.576176 27.41 0.211113 30.1481C1.03154 33.0041 4.06003 34.7452 6.86103 33.8338C6.96736 33.7991 49.6056 19.9233 49.6056 19.9233Z" fill="#F8F8F8"/>
<path opacity="0.5" d="M12.3899 31.3586C15.0435 30.4963 18.4645 29.3845 22.135 28.192C20.9384 24.5074 19.8257 21.0832 18.9692 18.4463L9.22266 21.6144L12.3899 31.3586Z" fill="#F8F8F8"/>
<path opacity="0.5" d="M34.5246 23.9802C38.2091 22.7832 41.6333 21.6706 44.2698 20.8137C43.0727 17.1293 41.9601 13.7048 41.1031 11.0679L31.3574 14.2354L34.5246 23.9802Z" fill="#F8F8F8"/>
<path opacity="0.5" d="M100.849 17.3C102.773 18.1246 102.913 18.7431 101.408 21.5606C99.8693 24.4469 99.4842 24.6184 97.5948 23.8625C95.2155 22.8663 92.1712 22.1104 90.2118 22.1104C86.9933 22.1104 84.8587 23.244 84.8587 24.962C84.8587 30.6317 103.298 27.5734 103.298 39.6682C103.298 45.7502 97.9794 49.8047 90.0024 49.8047C85.8037 49.8047 80.6248 48.4303 77.0559 46.6435C75.2717 45.7502 75.167 45.2345 76.706 42.3483C78.0361 39.8056 78.4555 39.5307 80.3801 40.3213C83.4239 41.627 87.2732 42.6232 89.8624 42.6232C92.8015 42.6232 94.7609 41.4549 94.7609 39.7369C94.7609 34.2393 76.0067 36.8506 76.0067 25.1341C76.0067 18.9147 81.2898 14.7568 89.1974 14.7568C92.9062 14.7568 97.5948 15.8564 100.849 17.3Z" fill="#F8F8F8"/>
<path opacity="0.5" d="M116.213 2.48299V48.3711C116.213 49.0706 115.406 49.8048 114.254 49.8048H108.95C107.797 49.8048 106.99 49.0706 106.99 48.3711V2.48299C106.99 0.209852 107.682 0 111.602 0C116.06 0 116.213 0.279802 116.213 2.48299Z" fill="#F8F8F8"/>
<path opacity="0.5" fill-rule="evenodd" clip-rule="evenodd" d="M151.26 47.7085V28.2952C151.26 19.7739 145.5 14.7568 136.333 14.7568C132.243 14.7568 127.812 16.1312 124.541 18.2621C122.837 19.3616 122.769 19.8767 124.541 22.5914C126.347 25.3056 126.756 25.3744 128.426 24.4123C130.607 23.1412 133.334 22.2478 135.549 22.2478C140.286 22.2478 143.081 24.3782 143.081 27.9516V30.1848C140.831 29.2573 138.071 28.7075 135.038 28.7075C127.063 28.7417 121.746 33.1056 121.746 39.5995C121.746 45.7156 126.449 49.8047 133.47 49.8047C137.082 49.8047 140.695 48.3269 143.217 45.5094L143.149 47.6056C143.081 48.6705 143.83 49.4611 144.887 49.4611H149.522C150.545 49.4611 151.26 48.7393 151.26 47.7085ZM134.457 43.3793C131.526 43.3793 129.583 41.8333 129.583 39.5309C129.583 36.6793 132.514 34.5831 136.877 34.5831C138.921 34.5831 141.205 34.9954 143.079 35.7172V38.7409C141.205 41.6613 138.001 43.3793 134.457 43.3793Z" fill="#F8F8F8"/>
<path opacity="0.5" d="M183.767 17.0577C185.496 18.0557 185.566 18.6065 183.663 21.5328C181.865 24.2868 181.553 24.4587 179.651 23.4948C178.198 22.7375 175.88 22.0836 173.977 22.0836C167.993 22.0836 164.015 26.008 164.015 31.929C164.015 38.0907 167.993 42.2217 173.977 42.2217C176.053 42.2217 178.647 41.4302 180.342 40.5005C182.072 39.5024 182.453 39.5712 184.286 42.2217C185.946 44.7002 185.912 45.2857 184.424 46.3184C181.761 48.1427 177.541 49.5543 173.84 49.5543C162.77 49.5543 155.367 42.4971 155.367 31.929C155.367 21.4293 162.77 14.4409 173.908 14.4409C177.298 14.4409 181.276 15.5772 183.767 17.0577Z" fill="#F8F8F8"/>
<path opacity="0.5" d="M219.881 44.907C221.265 46.6629 220.711 47.2826 217.252 48.5218C213.724 49.7953 213.24 49.7264 211.995 48.1087L202.101 34.9586L197.674 39.2272V47.7645C197.674 48.453 196.947 49.1756 195.91 49.1756H191.136C190.098 49.1756 189.372 48.453 189.372 47.7645V2.59916C189.372 0.36182 189.994 0.155273 193.523 0.155273C197.535 0.155273 197.674 0.430669 197.674 2.59916V28.2803L211.233 15.3367C212.721 13.925 213.551 14.0286 216.215 15.784C219.155 17.6775 219.363 18.1937 217.944 19.5706L207.843 29.3472L219.881 44.907Z" fill="#F8F8F8"/>
</svg>
