<svg width="175" height="72" viewBox="0 0 175 72" fill="none" xmlns="http://www.w3.org/2000/svg">
<path opacity="0.5" fill-rule="evenodd" clip-rule="evenodd" d="M94.7657 9.94427L82.1224 12.5896V12.5892V2.59637L94.7657 0V9.94427ZM45.5901 5.39561L33.4045 7.92307L33.3547 46.8585C33.3547 54.0529 38.8982 59.3508 46.2896 59.3508C50.3847 59.3508 53.381 58.6218 55.029 57.7469V47.8794C53.4312 48.5113 45.5402 50.7472 45.5402 43.5531V26.2971H55.029V15.9436H45.5402L45.5901 5.39561ZM13.0777 27.2425C13.0777 25.3928 14.625 24.6811 17.1882 24.6811C20.8629 24.6811 25.5048 25.7724 29.1799 27.7171V16.57C25.1666 15.0048 21.2015 14.3882 17.1882 14.3882C7.3719 14.3882 0.843994 19.4162 0.843994 27.8122C0.843994 35.7143 7.53912 38.0862 12.8466 39.9664C16.3318 41.2011 19.2187 42.2238 19.2187 44.4612C19.2187 46.6427 17.2848 47.3545 14.5767 47.3545C10.5634 47.3545 5.43767 45.7416 1.37575 43.5597V54.8489C5.87286 56.7462 10.4183 57.5523 14.5767 57.5523C24.6345 57.5523 31.5493 52.667 31.5493 44.1764C31.5194 35.4154 24.4305 33.0502 19.0446 31.2532C15.7407 30.1509 13.0777 29.2623 13.0777 27.2425ZM69.2816 16.6905L70.0699 20.2981C72.9762 15.0326 78.7395 16.1053 80.3158 16.6905V27.904C78.7887 27.3678 73.8625 26.6853 70.9566 30.4394V59.3506H58.6415V16.6905H69.2816ZM82.1224 16.1864H94.7657V57.5521H82.1224V16.1864ZM119.512 14.3882C114.684 14.3882 111.581 16.6279 109.857 18.1863L109.216 15.1674H98.3795V71.9404L110.694 69.3601L110.744 55.5805C112.517 56.8466 115.128 58.6481 119.463 58.6481C128.28 58.6481 136.31 51.6366 136.31 36.2018C136.26 22.0813 128.132 14.3882 119.512 14.3882ZM111.068 44.589C112.179 45.7907 113.8 46.761 116.532 46.761C120.793 46.761 123.664 42.1396 123.664 35.9467C123.664 29.8926 120.747 25.1789 116.532 25.1789C113.893 25.1789 112.225 26.1031 111.021 27.4431L111.068 44.589ZM174.238 36.1365C174.238 23.9802 168.209 14.3882 156.687 14.3882C145.115 14.3882 138.114 23.9806 138.114 36.0417C138.114 50.3345 146.38 57.5523 158.242 57.5523C164.028 57.5523 168.403 56.2702 171.71 54.466V44.9687C168.404 46.5833 164.611 47.5807 159.798 47.5807C155.082 47.5807 150.901 45.966 150.366 40.3628H174.141C174.141 40.1009 174.158 39.5061 174.178 38.8209C174.206 37.8902 174.238 36.7929 174.238 36.1365ZM157.228 25.1789C154.141 25.1789 150.759 27.2923 150.759 32.3729H163.402C163.402 27.2923 160.217 25.1789 157.228 25.1789Z" fill="#F8F8F8"/>
</svg>
