<svg width="187" height="39" viewBox="0 0 187 39" fill="none" xmlns="http://www.w3.org/2000/svg">
<path opacity="0.5" d="M28.9044 0.935454V22.2913C28.9044 29.4226 25.7784 32.3841 18.4465 32.3841C11.114 32.3841 7.98807 29.4226 7.98807 22.2913V0H0.926326C0.309195 0 0 0.312242 0 0.935454V22.6417C0 34.5673 7.52522 38.7371 18.4465 38.7371C29.3672 38.7371 36.8925 34.5673 36.8925 22.6417V0H29.8301C29.213 0 28.9044 0.312242 28.9044 0.935454" fill="#F8F8F8"/>
<path opacity="0.5" d="M133.3 6.30435C133.892 6.30435 134.169 6.10637 134.366 5.66965L136.459 0.475544C136.577 0.159162 136.459 0 136.142 0H107.05C104.326 0 103.301 0.832687 103.301 2.69604V36.437C103.301 38.0234 104.089 38.7371 106.182 38.7371H133.3C133.892 38.7371 134.169 38.5385 134.366 38.103L136.459 32.9083C136.577 32.5912 136.459 32.4327 136.142 32.4327H111.314V25.5733C111.314 23.1942 112.616 22.1235 116.129 22.1235H126.906C127.498 22.1235 127.774 21.9261 127.971 21.49L129.985 16.4939C130.103 16.1763 129.985 16.0184 129.669 16.0184H111.314V6.30435H133.3" fill="#F8F8F8"/>
<path opacity="0.5" fill-rule="evenodd" clip-rule="evenodd" d="M86.7445 9.83308C86.7445 13.5203 85.482 16.6524 82.4213 18.3178C86.6296 19.4675 88.5427 23.3929 88.5427 28.0318C88.5427 35.7635 83.2629 38.7371 75.8784 38.7371H56.2877C54.2597 38.7371 53.4949 38.0234 53.4949 36.437V2.69604C53.4949 0.832687 54.4889 0 57.1294 0H73.0468C80.0105 0 86.7445 1.26876 86.7445 9.83308ZM61.2594 6.22464H73.6222C77.7544 6.22464 78.9026 7.83761 78.9026 11.1806C78.9026 14.5243 77.7544 16.1373 73.6222 16.1373H61.2594V6.22464ZM75.0764 32.5124H61.2594V25.4148C61.2594 23.0358 62.522 21.9657 65.928 21.9657H75.0764C79.4764 21.9657 80.7008 23.71 80.7008 27.2788C80.7008 30.847 79.4764 32.5124 75.0764 32.5124Z" fill="#F8F8F8"/>
<path opacity="0.5" fill-rule="evenodd" clip-rule="evenodd" d="M177.501 23.1548L186.213 38.0629C186.372 38.3004 186.372 38.7371 185.855 38.7371H178.455C177.858 38.7371 177.619 38.499 177.38 38.103L169.504 23.9875H162.344C158.802 23.9875 157.49 25.0582 157.49 27.4373V38.7371H150.369C149.733 38.7371 149.414 38.4194 149.414 37.7853V2.69604C149.414 0.832687 150.449 0 153.193 0H169.822C179.489 0 185.337 2.53817 185.337 11.9345C185.337 19.1906 181.836 22.0452 177.501 23.1548ZM157.489 17.9608H171.016C176.068 17.9608 177.182 16.058 177.182 12.0931C177.182 8.16781 176.068 6.22552 171.016 6.22552H157.489V17.9608Z" fill="#F8F8F8"/>
</svg>
