<svg width="41" height="28" viewBox="0 0 41 28" fill="none" xmlns="http://www.w3.org/2000/svg">
<path d="M2.39453 0.25H38.8627C39.553 0.25 40.1127 0.809644 40.1127 1.5V26.0081C40.1127 26.6985 39.553 27.2581 38.8627 27.2581H2.39453C1.70418 27.2581 1.14453 26.6985 1.14453 26.0081V1.5C1.14453 0.809644 1.70418 0.25 2.39453 0.25Z" stroke="#E6E7E8" stroke-opacity="0.5" stroke-width="0.5"/>
<path fill-rule="evenodd" clip-rule="evenodd" d="M18.8472 17.7868H16.7305L18.0544 9.81421H20.1711L18.8472 17.7868Z" fill="white"/>
<path fill-rule="evenodd" clip-rule="evenodd" d="M26.5215 10.0091C26.104 9.84779 25.4418 9.66968 24.623 9.66968C22.5326 9.66968 21.0606 10.7553 21.0516 12.3073C21.0342 13.4524 22.1055 14.0884 22.9067 14.4702C23.7257 14.8604 24.0041 15.115 24.0041 15.4628C23.9957 15.9969 23.3423 16.2431 22.7329 16.2431C21.8878 16.2431 21.435 16.1162 20.7468 15.819L20.4681 15.6917L20.1719 17.4813C20.6683 17.7016 21.583 17.8971 22.5326 17.9056C24.7537 17.9056 26.1996 16.8369 26.2168 15.1829C26.2252 14.2753 25.6595 13.5799 24.44 13.0116C23.6996 12.6468 23.2462 12.4009 23.2462 12.0276C23.2549 11.6883 23.6297 11.3408 24.4654 11.3408C25.1536 11.3237 25.6592 11.4848 26.0422 11.646L26.2337 11.7307L26.5215 10.0091V10.0091V10.0091Z" fill="white"/>
<path fill-rule="evenodd" clip-rule="evenodd" d="M30.3091 9.81421H31.9464L33.6541 17.7867H31.6942C31.6942 17.7867 31.5024 16.8707 31.4416 16.5908H28.7239C28.6453 16.8027 28.2796 17.7867 28.2796 17.7867H26.0586L29.2027 10.4757C29.4206 9.95828 29.8042 9.81421 30.3091 9.81421ZM30.1771 12.7318C30.1771 12.7318 29.5064 14.5045 29.332 14.9625H31.0915C31.0044 14.5639 30.6036 12.6555 30.6036 12.6555L30.4556 11.9685C30.3933 12.1454 30.3032 12.3886 30.2425 12.5527C30.2013 12.6639 30.1736 12.7387 30.1771 12.7318Z" fill="white"/>
<path fill-rule="evenodd" clip-rule="evenodd" d="M14.9604 9.81421L12.8874 15.2508L12.6609 14.1482C12.2777 12.8759 11.0757 11.4936 9.73438 10.8063L11.6332 17.7784H13.8716L17.1987 9.81421H14.9604V9.81421V9.81421Z" fill="white"/>
<path fill-rule="evenodd" clip-rule="evenodd" d="M10.9639 9.81421H7.55828L7.52344 9.9753C10.18 10.6369 11.9395 12.2317 12.6623 14.1485L11.922 10.4844C11.8001 9.97519 11.4255 9.83101 10.9639 9.81421V9.81421Z" fill="white"/>
</svg>
