<svg width="40" height="28" viewBox="0 0 40 28" fill="none" xmlns="http://www.w3.org/2000/svg">
    <path d="M1.84375 0.25H38.3119C39.0023 0.25 39.5619 0.809644 39.5619 1.5V26.0081C39.5619 26.6985 39.0023 27.2581 38.3119 27.2581H1.84375C1.15339 27.2581 0.59375 26.6985 0.59375 26.0081V1.5C0.59375 0.809644 1.15339 0.25 1.84375 0.25Z" stroke="#E6E7E8" stroke-opacity="0.5" stroke-width="0.5"/>
    <path fill-rule="evenodd" clip-rule="evenodd" d="M13.2511 10.7201C12.9988 11.0219 12.5952 11.26 12.1915 11.226C12.1411 10.8178 12.3387 10.3842 12.57 10.1164C12.8222 9.80606 13.2637 9.585 13.6211 9.56799C13.6632 9.99311 13.4992 10.4097 13.2511 10.7201ZM13.6154 11.3066C13.2597 11.2859 12.9353 11.4147 12.6732 11.5188C12.5045 11.5857 12.3617 11.6424 12.253 11.6424C12.1311 11.6424 11.9824 11.5827 11.8154 11.5156C11.5966 11.4278 11.3464 11.3273 11.0841 11.3321C10.4828 11.3406 9.92362 11.685 9.61668 12.2334C8.98597 13.3302 9.4527 14.9541 10.0624 15.8469C10.3609 16.289 10.7183 16.7736 11.1892 16.7566C11.3964 16.7487 11.5455 16.6848 11.6997 16.6186C11.8773 16.5424 12.0617 16.4633 12.3497 16.4633C12.6278 16.4633 12.8042 16.5404 12.9735 16.6144C13.1345 16.6847 13.2891 16.7523 13.5186 16.7481C14.0064 16.7396 14.3133 16.306 14.6119 15.8639C14.934 15.3894 15.0756 14.9263 15.0971 14.856L15.0996 14.8478C15.0991 14.8473 15.0951 14.8455 15.0881 14.8422C14.9804 14.7924 14.1572 14.4114 14.1493 13.3897C14.1414 12.5321 14.8023 12.0976 14.9063 12.0292C14.9126 12.0251 14.9169 12.0223 14.9188 12.0208C14.4983 11.3916 13.8424 11.3236 13.6154 11.3066ZM16.9919 16.7016V10.074H19.4517C20.7215 10.074 21.6087 10.9582 21.6087 12.2506C21.6087 13.543 20.7047 14.4357 19.418 14.4357H18.0095V16.7016H16.9919ZM18.0078 10.9413H19.1809C20.0639 10.9413 20.5685 11.4174 20.5685 12.2549C20.5685 13.0924 20.0639 13.5728 19.1767 13.5728H18.0078V10.9413ZM24.9667 15.9067C24.6975 16.4254 24.1047 16.7527 23.4656 16.7527C22.5195 16.7527 21.8594 16.1831 21.8594 15.3243C21.8594 14.4741 22.4985 13.9852 23.68 13.9129L24.9498 13.8364V13.4708C24.9498 12.9309 24.6008 12.6376 23.9785 12.6376C23.4656 12.6376 23.0914 12.9054 23.0157 13.3135H22.099C22.1285 12.4548 22.9274 11.8298 24.008 11.8298C25.1727 11.8298 25.9295 12.4463 25.9295 13.4028V16.7017H24.9877V15.9067H24.9667ZM23.7388 15.9661C23.1963 15.9661 22.8516 15.7025 22.8516 15.2986C22.8516 14.882 23.1837 14.6397 23.8186 14.6014L24.9497 14.5292V14.9033C24.9497 15.524 24.4283 15.9661 23.7388 15.9661ZM29.0531 16.961C28.6452 18.1216 28.1785 18.5042 27.1862 18.5042C27.1105 18.5042 26.8582 18.4957 26.7994 18.4787V17.6837C26.8624 17.6922 27.018 17.7007 27.0979 17.7007C27.5478 17.7007 27.8001 17.5094 27.9556 17.012L28.0481 16.7187L26.3242 11.8936H27.388L28.5863 15.8089H28.6074L29.8057 11.8936H30.8401L29.0531 16.961Z" fill="white"/>
</svg>