<svg width="11" height="10" viewBox="0 0 11 10" fill="none" xmlns="http://www.w3.org/2000/svg">
<path d="M10.9682 0.188562C10.9131 0.0734343 10.7957 0 10.6666 0H0.333406C0.204363 0 0.0869221 0.0734343 0.0318466 0.188562C-0.0231844 0.303689 -0.00593722 0.439773 0.0761648 0.537978L4.0484 5.28968V9.67119C4.0484 9.78496 4.10801 9.89062 4.20598 9.95059C4.25968 9.98343 4.32062 10 4.38179 10C4.43233 10 4.48305 9.98864 4.52981 9.9658L6.76163 8.87481C6.87503 8.8194 6.94677 8.70545 6.94695 8.58064L6.95131 5.28981L10.9238 0.537934C11.0059 0.439773 11.0232 0.303645 10.9682 0.188562ZM6.3609 4.96241C6.31178 5.02115 6.28485 5.09494 6.28476 5.17113L6.28049 8.37607L4.71522 9.14124V5.17157C4.71522 5.09525 4.68832 5.02129 4.63907 4.96241L1.04036 0.657577H9.95961L6.3609 4.96241Z" fill="white"/>
</svg>
