<svg width="40" height="28" viewBox="0 0 40 28" fill="none" xmlns="http://www.w3.org/2000/svg">
    <path d="M1.94922 0.25H38.4174C39.1077 0.25 39.6674 0.809644 39.6674 1.5V26.0081C39.6674 26.6985 39.1077 27.2581 38.4174 27.2581H1.94922C1.25886 27.2581 0.699219 26.6985 0.699219 26.0081V1.5C0.699219 0.809644 1.25886 0.25 1.94922 0.25Z" stroke="#E6E7E8" stroke-opacity="0.5" stroke-width="0.5"/>
    <g opacity="0.01">
        <rect x="8.22266" y="5.9801" width="23.8096" height="15.5302" fill="white"/>
    </g>
    <rect x="16.9883" y="8.68579" width="6.28084" height="10.117" fill="#747474"/>
    <path fill-rule="evenodd" clip-rule="evenodd" d="M17.6333 13.7451C17.6317 11.7713 18.5506 9.90627 20.125 8.68756C17.4503 6.61449 13.6092 6.91645 11.3013 9.38123C8.99332 11.846 8.99332 15.6461 11.3013 18.1108C13.6092 20.5756 17.4503 20.8776 20.125 18.8045C18.5501 17.5854 17.6312 15.7197 17.6333 13.7451Z" fill="#AAAAAA"/>
    <path fill-rule="evenodd" clip-rule="evenodd" d="M30.0711 17.5689V17.9893H30.0273V17.5689H29.9336V17.4819H30.1708V17.5689H30.0711ZM30.5336 17.482V17.9894H30.4838V17.6052L30.406 17.935H30.3522L30.2745 17.6052V17.9894H30.2227V17.482H30.2944L30.3781 17.8444L30.4619 17.482H30.5336Z" fill="#F79E1B"/>
    <path fill-rule="evenodd" clip-rule="evenodd" d="M30.6806 13.7453C30.6806 16.2086 29.2544 18.4556 27.0078 19.532C24.7612 20.6085 22.0885 20.3253 20.125 18.8029C21.6988 17.5831 22.6176 15.7184 22.6176 13.7444C22.6176 11.7704 21.6988 9.90568 20.125 8.68593C22.0885 7.16349 24.7612 6.88037 27.0078 7.9568C29.2544 9.03324 30.6806 11.2802 30.6806 13.7435V13.7453Z" fill="white"/>
</svg>