<svg class="operating-mode__icon" xmlns="http://www.w3.org/2000/svg" width="24"
     height="24" viewBox="0 0 24 24" fill="none">
    <path d="M12 0C5.3832 0 0 5.3832 0 12C0 18.6168 5.3832 24 12 24C18.6168 24 24 18.6168 24 12C24 5.3832 18.6168 0 12 0ZM12 23.2C5.8244 23.2 0.8 18.1756 0.8 12C0.8 5.8244 5.8244 0.8 12 0.8C18.1756 0.8 23.2 5.8244 23.2 12C23.2 18.1756 18.1756 23.2 12 23.2Z"
          fill="white"/>
    <path d="M12.0002 2.39999C11.7794 2.39999 11.6002 2.57879 11.6002 2.79999V12H5.6002C5.3794 12 5.2002 12.1788 5.2002 12.4C5.2002 12.6212 5.3794 12.8 5.6002 12.8H12.0002C12.221 12.8 12.4002 12.6212 12.4002 12.4V2.79999C12.4002 2.57879 12.221 2.39999 12.0002 2.39999Z"
          fill="white"/>
</svg>