<svg width="40" height="28" viewBox="0 0 40 28" fill="none" xmlns="http://www.w3.org/2000/svg">
    <path d="M1.5 0.25H37.9682C38.6585 0.25 39.2182 0.809644 39.2182 1.5V26.0081C39.2182 26.6985 38.6585 27.2581 37.9682 27.2581H1.5C0.809645 27.2581 0.25 26.6985 0.25 26.0081V1.5C0.25 0.809644 0.809644 0.25 1.5 0.25Z" stroke="#E6E7E8" stroke-opacity="0.5" stroke-width="0.5"/>
    <path fill-rule="evenodd" clip-rule="evenodd" d="M17.0078 7.1759H21.0886C22.2379 7.1759 23.6011 7.21326 24.513 8.01747C25.1221 8.55473 25.4418 9.41071 25.3679 10.3296C25.1177 13.4456 23.2538 15.191 20.7544 15.191H18.7418C18.3993 15.191 18.1722 15.4179 18.0756 16.0327L17.5139 19.6054C17.4775 19.8372 17.377 19.9738 17.1936 19.9903H14.6798C14.4009 19.9903 14.3018 19.777 14.3747 19.3148L16.1849 7.85385C16.2574 7.39455 16.5087 7.1759 17.0078 7.1759" fill="#AAAAAA"/>
    <path fill-rule="evenodd" clip-rule="evenodd" d="M19.6345 10.764H23.7112C25.8998 10.764 26.7239 11.8719 26.5967 13.5023C26.3869 16.19 24.7618 17.6762 22.6065 17.6762H21.5182C21.2228 17.6762 21.024 17.8715 20.9435 18.4022L20.4768 21.4833C20.4465 21.6834 20.3413 21.801 20.1831 21.8153H17.6268C17.3863 21.8153 17.3008 21.6312 17.3637 21.2327L18.9248 11.3488C18.9873 10.9526 19.2039 10.764 19.6345 10.764" fill="white"/>
    <path fill-rule="evenodd" clip-rule="evenodd" d="M17.9414 15.8592L18.654 11.3487C18.7166 10.9526 18.9333 10.7641 19.3639 10.7641H23.4406C24.1155 10.7641 24.6607 10.8694 25.088 11.0634C24.6783 13.8368 22.8846 15.3776 20.5359 15.3776H18.5231C18.2582 15.3776 18.0603 15.513 17.9414 15.8592" fill="#747474"/>
</svg>