<svg width="156" height="192" viewBox="0 0 156 192" fill="none" xmlns="http://www.w3.org/2000/svg">
<g opacity="0.2">
<path d="M86.5386 35.6266L106.461 19.0245C106.462 19.0237 106.463 19.0228 106.465 19.0215L106.476 19.012C106.54 18.9586 106.6 18.9023 106.659 18.8451C106.671 18.833 106.685 18.8217 106.698 18.8095C106.772 18.7354 106.842 18.6583 106.908 18.5785C106.916 18.5686 106.923 18.5577 106.931 18.5482C106.987 18.4784 107.041 18.4073 107.091 18.3341C107.11 18.3055 107.127 18.2751 107.146 18.2461C107.182 18.1897 107.217 18.1338 107.249 18.0762C107.271 18.0363 107.29 17.9951 107.311 17.9544C107.335 17.9054 107.36 17.856 107.382 17.8057C107.403 17.7593 107.421 17.7117 107.439 17.664C107.457 17.6172 107.475 17.5699 107.491 17.5223C107.507 17.4728 107.522 17.4226 107.536 17.3719C107.55 17.3229 107.562 17.2735 107.574 17.2241C107.585 17.1751 107.596 17.1257 107.605 17.0758C107.615 17.0195 107.624 16.9631 107.631 16.9064C107.637 16.8621 107.643 16.8184 107.647 16.7737C107.654 16.7005 107.657 16.6272 107.658 16.554C107.658 16.5288 107.662 16.5046 107.662 16.4794C107.662 16.4738 107.661 16.4682 107.661 16.4625C107.66 16.3563 107.656 16.251 107.645 16.1448C107.644 16.1327 107.641 16.121 107.64 16.1088C107.63 16.0183 107.616 15.9285 107.598 15.8388C107.59 15.7963 107.579 15.7552 107.569 15.7131C107.555 15.6555 107.541 15.5983 107.524 15.5411C107.51 15.4916 107.492 15.4435 107.475 15.395C107.459 15.3473 107.442 15.2996 107.423 15.2524C107.403 15.2008 107.38 15.1501 107.357 15.0998C107.337 15.0573 107.317 15.0149 107.296 14.9733C107.27 14.9221 107.241 14.8723 107.213 14.8229C107.2 14.8003 107.189 14.7769 107.175 14.7548L99.0842 1.57205C98.4847 0.595532 97.4211 0 96.2751 0H91.1832C91.1828 0 91.1828 0 91.1828 0L59.7236 0.000866383C58.5776 0.000866383 57.514 0.595965 56.9145 1.57292L48.8246 14.7548C48.8107 14.7774 48.7998 14.8003 48.7868 14.8229C48.7582 14.8723 48.7301 14.9221 48.7041 14.9733C48.6824 15.0149 48.6624 15.0573 48.6429 15.0998C48.62 15.1501 48.597 15.2008 48.5762 15.2524C48.5571 15.2996 48.5407 15.3473 48.5242 15.395C48.5073 15.4435 48.4899 15.4916 48.4752 15.5411C48.4583 15.5983 48.4449 15.6555 48.431 15.7131C48.421 15.7552 48.4098 15.7963 48.4011 15.8388C48.3833 15.9285 48.3699 16.0183 48.3599 16.1088C48.3586 16.121 48.356 16.1327 48.3547 16.1448C48.3439 16.251 48.3391 16.3563 48.3387 16.4625C48.3387 16.4682 48.3378 16.4738 48.3378 16.4794C48.3378 16.5046 48.3408 16.5288 48.3417 16.554C48.343 16.6272 48.346 16.7005 48.3525 16.7737C48.3564 16.8184 48.3629 16.8621 48.3686 16.9064C48.3759 16.9631 48.3842 17.0195 48.3946 17.0758C48.4037 17.1257 48.4145 17.1751 48.4254 17.2241C48.4371 17.2735 48.4496 17.3229 48.4635 17.3719C48.4778 17.4226 48.4925 17.4728 48.509 17.5223C48.5251 17.5699 48.5428 17.6172 48.5606 17.664C48.5792 17.7117 48.597 17.7593 48.6174 17.8057C48.6395 17.856 48.6642 17.9054 48.6889 17.9544C48.7093 17.9951 48.7283 18.0363 48.7504 18.0762C48.7825 18.1338 48.818 18.1897 48.8536 18.2461C48.8722 18.2751 48.8891 18.3055 48.9086 18.3341C48.9585 18.4073 49.0127 18.4784 49.0686 18.5482C49.0764 18.5582 49.0837 18.569 49.0915 18.5785C49.1574 18.6578 49.2272 18.735 49.3018 18.8095C49.3143 18.8221 49.3278 18.833 49.3408 18.8451C49.3997 18.9023 49.4595 18.9586 49.5237 19.012L49.5349 19.0215C49.5362 19.0228 49.5375 19.0237 49.5388 19.0245L69.461 35.6266C30.4545 39.8933 0 73.0329 0 113.157C0 156.166 34.9908 191.157 78 191.157C121.009 191.157 156 156.166 156 113.157C156 73.0329 125.546 39.8933 86.5386 35.6266ZM81.2958 31.4154V19.7761H95.2631L81.2958 31.4154ZM92.5481 6.59333H94.4309L98.4761 13.1845H85.9569L92.5481 6.59333ZM83.2259 6.59376L78 11.8192L72.7741 6.59376H83.2259ZM61.5683 6.5942H63.4519L70.0427 13.1845H57.5235L61.5683 6.5942ZM60.7369 19.7761H74.7042V31.4154L60.7369 19.7761ZM78 184.565C38.6251 184.565 6.5916 152.531 6.5916 113.157C6.5916 73.7823 38.6251 41.7484 78 41.7484C117.375 41.7484 149.408 73.7823 149.408 113.157C149.408 152.531 117.375 184.565 78 184.565Z" fill="#E08B66"/>
</g>
</svg>
