<svg width="41" height="28" viewBox="0 0 41 28" fill="none" xmlns="http://www.w3.org/2000/svg">
    <path d="M2.29297 0.25H38.7611C39.4515 0.25 40.0111 0.809644 40.0111 1.5V26.0081C40.0111 26.6985 39.4515 27.2581 38.7611 27.2581H2.29297C1.60261 27.2581 1.04297 26.6985 1.04297 26.0081V1.5C1.04297 0.809644 1.60261 0.25 2.29297 0.25Z" stroke="#E6E7E8" stroke-opacity="0.5" stroke-width="0.5"/>
    <path fill-rule="evenodd" clip-rule="evenodd" d="M32.4876 14.2158C32.4876 12.4808 31.6637 11.1118 30.089 11.1118C28.5076 11.1118 27.5508 12.4808 27.5508 14.2023C27.5508 16.2423 28.6803 17.2724 30.3016 17.2724C31.0923 17.2724 31.6903 17.0894 32.1421 16.8319V15.4764C31.6903 15.7069 31.172 15.8492 30.5142 15.8492C29.8697 15.8492 29.2983 15.6188 29.2252 14.819H32.4743C32.4743 14.7309 32.4876 14.3785 32.4876 14.2158ZM29.207 13.5724C29.207 12.8065 29.6655 12.488 30.0841 12.488C30.4894 12.488 30.9213 12.8065 30.9213 13.5724H29.207Z" fill="white"/>
    <path fill-rule="evenodd" clip-rule="evenodd" d="M24.9833 11.1118C24.3321 11.1118 23.9135 11.4236 23.681 11.6405L23.5946 11.2203H22.1328V19.1227L23.7939 18.7635L23.8006 16.8455C24.0398 17.0217 24.3919 17.2724 24.9766 17.2724C26.166 17.2724 27.2491 16.2965 27.2491 14.1481C27.2424 12.1826 26.1461 11.1118 24.9833 11.1118ZM24.5845 15.7817C24.1925 15.7817 23.96 15.6394 23.8005 15.4632L23.7939 12.9488C23.9666 12.7523 24.2058 12.6167 24.5845 12.6167C25.1892 12.6167 25.6078 13.308 25.6078 14.1958C25.6078 15.104 25.1958 15.7817 24.5845 15.7817Z" fill="white"/>
    <path fill-rule="evenodd" clip-rule="evenodd" d="M19.8477 10.7119L21.5154 10.3459V8.97009L19.8477 9.32929V10.7119Z" fill="white"/>
    <rect x="19.8477" y="11.2268" width="1.66776" height="5.93019" fill="white"/>
    <path fill-rule="evenodd" clip-rule="evenodd" d="M18.061 11.7284L17.9547 11.2269H16.5195V17.1571H18.1806V13.1381C18.5727 12.6163 19.2371 12.7112 19.4431 12.7857V11.2269C19.2305 11.1456 18.4531 10.9965 18.061 11.7284Z" fill="white"/>
    <path fill-rule="evenodd" clip-rule="evenodd" d="M14.7373 9.7561L13.116 10.1085L13.1094 15.5372C13.1094 16.5402 13.8469 17.279 14.8303 17.279C15.3751 17.279 15.7738 17.1773 15.9931 17.0553V15.6795C15.7805 15.7676 14.7306 16.0794 14.7306 15.0763V12.6704H15.9931V11.2268H14.7306L14.7373 9.7561Z" fill="white"/>
    <path fill-rule="evenodd" clip-rule="evenodd" d="M10.2475 12.9484C10.2475 12.684 10.4601 12.5824 10.8122 12.5824C11.3172 12.5824 11.9551 12.7383 12.4601 13.0161V11.4235C11.9086 11.1998 11.3637 11.1117 10.8122 11.1117C9.46341 11.1117 8.56641 11.8301 8.56641 13.0297C8.56641 14.9002 11.0913 14.602 11.0913 15.4085C11.0913 15.7203 10.8255 15.822 10.4534 15.822C9.90194 15.822 9.19763 15.5915 8.6395 15.2798V16.8928C9.25743 17.1639 9.88201 17.2791 10.4534 17.2791C11.8355 17.2791 12.7856 16.581 12.7856 15.3679C12.779 13.3482 10.2475 13.7074 10.2475 12.9484Z" fill="white"/>
</svg>